<svg width="32" height="32" viewBox="0 0 32 32" fill="none" xmlns="http://www.w3.org/2000/svg">
<path d="M26.1327 0H5.86653C2.63176 0 0 2.63176 0 5.86653V26.1327C0 29.3675 2.63176 32 5.86653 32H26.1327C29.3675 32 32 29.3682 32 26.1327V5.86653C32 2.63176 29.3682 0 26.1327 0ZM15.9996 26.5342C10.1914 26.5342 5.46578 21.8086 5.46578 15.9996C5.46578 10.1914 10.1914 5.46578 15.9996 5.46578C21.8086 5.46578 26.5342 10.1914 26.5342 15.9996C26.5342 21.8078 21.8078 26.5342 15.9996 26.5342ZM26.8728 7.64376C25.4979 7.64376 24.3797 6.5256 24.3797 5.15139C24.3797 3.77718 25.4979 2.65903 26.8728 2.65903C28.2471 2.65903 29.3652 3.77718 29.3652 5.15139C29.3652 6.5256 28.2471 7.64376 26.8728 7.64376Z" fill="white"/>
<path d="M15.9996 9.91724C12.6466 9.91724 9.91638 12.646 9.91638 15.9989C9.91638 19.3534 12.6466 22.0829 15.9996 22.0829C19.354 22.0829 22.082 19.3534 22.082 15.9989C22.082 12.6467 19.3533 9.91724 15.9996 9.91724Z" fill="white"/>
</svg>
