<svg width="531" height="524" viewBox="0 0 531 524" fill="none" xmlns="http://www.w3.org/2000/svg">
<path d="M319.786 107.966C326.683 113.646 336.053 116.189 344.884 114.797C353.715 113.405 361.839 108.078 366.636 100.561C369.517 96.0506 371.228 90.6309 370.466 85.3412C369.703 80.0514 366.115 75.0215 361.003 73.4068C358.958 72.7572 356.801 72.6644 354.737 72.1075C352.674 71.5507 350.592 70.3629 349.811 68.3769C348.825 65.8712 350.201 63.0315 349.736 60.3959C348.956 56.0713 343.917 54.141 341.24 50.6702C337.671 46.0486 338.768 39.5153 340.032 33.8172L336.146 30.4949L319.786 107.966Z" fill="#263238"/>
<path d="M263.864 116.244C263.864 116.244 231.237 160.957 229.415 162.107C223.819 165.652 166.893 187.61 166.893 187.61L170.035 207.209C170.035 207.209 242.633 186.626 246.853 183.582C251.092 180.538 280.726 135.844 280.726 135.844L263.864 116.244Z" fill="#FFBE9D"/>
<path d="M372.418 140.372L369.648 103.975C365.056 78.3804 332.242 80.5705 332.242 80.5705L304.039 80.1065C304.039 80.1065 284.426 80.719 273.234 96.5882C264.106 109.506 254.234 123.167 254.234 123.167L275.335 144.493L282.678 131.649C282.678 131.649 278.644 136.178 279.332 143.918C280.187 153.68 287.382 155.555 287.382 155.555L284.184 221.519L373.329 220.702L358.567 186.755L361.449 139.185L372.418 140.372Z" fill="#E1215B"/>
<path d="M338.005 140.726C337.206 140.596 336.388 141.672 335.96 143.064C335.551 144.456 335.663 145.793 336.388 146.127C337.113 146.461 338.266 145.496 338.749 143.881C339.214 142.285 338.786 140.837 338.005 140.726Z" fill="#E1215B"/>
<path d="M335.291 105.479C334.492 105.591 334.064 108.152 334.324 111.215C334.585 114.277 335.44 116.746 336.239 116.708C337.039 116.69 337.485 114.11 337.206 110.973C336.946 107.836 336.072 105.368 335.291 105.479Z" fill="#E1215B"/>
<path d="M340.459 130.536C341.259 130.499 341.854 129.534 341.37 128.513C340.887 127.492 339.753 127.362 339.214 127.956C338.675 128.55 338.545 129.311 338.749 129.775C338.972 130.202 339.66 130.573 340.459 130.536Z" fill="#E1215B"/>
<path d="M317.574 108.43C316.793 108.579 316.421 110.101 316.756 111.808C317.09 113.535 318.001 114.797 318.782 114.648C319.563 114.5 319.935 112.978 319.6 111.27C319.266 109.544 318.355 108.263 317.574 108.43Z" fill="#E1215B"/>
<path d="M292.68 111.14C292.532 111.92 293.87 112.811 295.673 112.681C297.477 112.551 298.667 111.474 298.406 110.732C298.146 109.971 296.863 109.693 295.469 109.785C294.056 109.897 292.81 110.342 292.68 111.14Z" fill="#E1215B"/>
<path d="M288.311 107.354C288.795 107.985 290.561 107.465 292.234 106.185C293.907 104.904 294.874 103.345 294.391 102.714C293.907 102.083 292.141 102.602 290.468 103.883C288.795 105.164 287.828 106.704 288.311 107.354Z" fill="#E1215B"/>
<path d="M284.165 104.44C284.965 104.458 285.616 102.473 284.983 100.152C284.37 97.8138 282.808 96.4218 282.139 96.8301C281.433 97.2385 281.674 98.9646 282.176 100.895C282.697 102.807 283.347 104.44 284.165 104.44Z" fill="#E1215B"/>
<path d="M275.056 102.51C274.461 103.048 275.037 104.644 276.357 106.055C277.659 107.465 279.202 108.189 279.797 107.632C280.392 107.094 279.815 105.498 278.495 104.087C277.194 102.677 275.651 101.953 275.056 102.51Z" fill="#E1215B"/>
<path d="M279.332 114.203C279.48 114.982 281.228 115.335 283.236 114.982C285.244 114.63 286.768 113.683 286.619 112.904C286.471 112.124 284.723 111.771 282.715 112.124C280.707 112.477 279.183 113.405 279.332 114.203Z" fill="#E1215B"/>
<path d="M302.348 112.347C302.515 113.126 304.058 113.46 305.787 113.071C307.516 112.681 308.78 111.753 308.613 110.955C308.446 110.175 306.902 109.841 305.173 110.231C303.445 110.621 302.18 111.567 302.348 112.347Z" fill="#E1215B"/>
<path d="M299.057 104.922C299.466 105.609 300.953 105.498 302.403 104.663C303.854 103.827 304.69 102.584 304.281 101.897C303.872 101.21 302.385 101.322 300.935 102.176C299.485 102.992 298.648 104.217 299.057 104.922Z" fill="#E1215B"/>
<path d="M288.516 99.2616C289.204 99.6328 290.542 98.5377 290.97 96.6445C291.416 94.7514 290.691 93.1737 289.91 93.2108C289.092 93.248 288.497 94.5101 288.144 95.9949C287.809 97.4798 287.809 98.8718 288.516 99.2616Z" fill="#E1215B"/>
<path d="M275.93 95.4381C275.223 95.8093 275.037 96.8672 275.539 97.8138C276.041 98.7604 277.008 99.2244 277.714 98.8532C278.421 98.482 278.607 97.4241 278.105 96.4775C277.621 95.5309 276.655 95.0669 275.93 95.4381Z" fill="#E1215B"/>
<path d="M268.623 106.482C268.419 107.261 269.107 108.115 270.148 108.393C271.207 108.672 272.23 108.282 272.434 107.502C272.639 106.723 271.951 105.869 270.91 105.591C269.85 105.312 268.828 105.721 268.623 106.482Z" fill="#E1215B"/>
<path d="M302.738 92.023C302.31 91.3548 300.303 91.9116 298.685 93.712C297.068 95.5123 296.715 97.554 297.421 97.9066C298.146 98.2779 299.485 97.1271 300.842 95.6423C302.18 94.1574 303.184 92.7097 302.738 92.023Z" fill="#E1215B"/>
<path d="M284.482 88.1995C283.682 88.1995 283.031 89.2018 283.031 90.4453C283.031 91.6889 283.682 92.6911 284.482 92.6911C285.281 92.6911 285.932 91.6889 285.932 90.4453C285.932 89.2018 285.281 88.1995 284.482 88.1995Z" fill="#E1215B"/>
<path d="M315.51 103.363C315.25 102.602 313.409 102.547 311.42 103.215C309.412 103.902 307.999 105.052 308.26 105.813C308.52 106.574 310.342 106.63 312.35 105.962C314.358 105.294 315.77 104.124 315.51 103.363Z" fill="#E1215B"/>
<path d="M307.237 96.8672C307.795 97.4426 308.966 97.2013 309.821 96.3476C310.676 95.4938 310.918 94.343 310.36 93.7676C309.803 93.1923 308.631 93.4336 307.776 94.2873C306.921 95.1411 306.679 96.2919 307.237 96.8672Z" fill="#E1215B"/>
<path d="M294.242 85.0813C293.442 85.0256 292.699 86.1764 292.587 87.6612C292.476 89.1461 293.033 90.3896 293.833 90.4453C294.632 90.501 295.376 89.3502 295.488 87.8654C295.599 86.3991 295.041 85.1556 294.242 85.0813Z" fill="#E1215B"/>
<path d="M328.654 102.491C327.91 102.788 327.855 104.459 328.561 106.259C329.249 108.059 330.42 109.266 331.182 108.987C331.926 108.69 331.982 107.02 331.275 105.219C330.569 103.419 329.416 102.213 328.654 102.491Z" fill="#E1215B"/>
<path d="M323.374 101.953C322.593 101.804 321.664 103.141 321.329 104.941C320.995 106.741 321.348 108.319 322.129 108.468C322.909 108.616 323.839 107.28 324.174 105.479C324.527 103.679 324.155 102.101 323.374 101.953Z" fill="#E1215B"/>
<path d="M312.145 99.2615C312.182 100.06 313.725 100.635 315.566 100.524C317.406 100.431 318.875 99.6884 318.838 98.8903C318.801 98.0922 317.258 97.5168 315.417 97.6282C313.558 97.7396 312.108 98.4634 312.145 99.2615Z" fill="#E1215B"/>
<path d="M333.283 98.4449C333.116 99.2244 334.194 100.134 335.7 100.449C337.206 100.783 338.582 100.412 338.749 99.6327C338.916 98.8532 337.838 97.9437 336.332 97.6282C334.808 97.2941 333.451 97.6653 333.283 98.4449Z" fill="#E1215B"/>
<path d="M323.411 95.4752C323.132 96.2176 323.913 97.2199 325.159 97.6839C326.405 98.1479 327.65 97.9252 327.929 97.1828C328.208 96.4404 327.427 95.4381 326.181 94.9741C324.936 94.5101 323.69 94.7328 323.411 95.4752Z" fill="#E1215B"/>
<path d="M332.224 92.8396C332.149 93.6192 334.343 94.4915 337.132 94.2502C339.92 94.0275 341.947 92.8025 341.724 92.0415C341.519 91.262 339.381 91.1692 336.89 91.3733C334.38 91.5775 332.298 92.0415 332.224 92.8396Z" fill="#E1215B"/>
<path d="M327.446 89.0904C327.762 89.8328 330.03 89.5544 332.502 88.4779C334.975 87.4014 336.723 85.9351 336.407 85.1927C336.091 84.4503 333.822 84.7287 331.35 85.8052C328.877 86.8817 327.13 88.348 327.446 89.0904Z" fill="#E1215B"/>
<path d="M300.693 85.4525C300.358 86.195 301.195 87.2715 302.441 88.1067C303.686 88.9234 305.025 89.2574 305.564 88.6635C306.103 88.0696 305.489 86.6404 304.039 85.6938C302.571 84.7101 301.009 84.7287 300.693 85.4525Z" fill="#E1215B"/>
<path d="M341.928 87.0673C342.226 87.8097 343.397 88.051 344.568 87.587C345.721 87.123 346.427 86.1578 346.13 85.4154C345.832 84.673 344.661 84.4317 343.49 84.8957C342.337 85.3412 341.631 86.3249 341.928 87.0673Z" fill="#E1215B"/>
<path d="M301.901 168.232C301.883 169.03 303.798 169.754 306.177 169.829C308.576 169.903 310.528 169.327 310.546 168.529C310.565 167.731 308.65 167.026 306.27 166.933C303.891 166.84 301.939 167.416 301.901 168.232Z" fill="#E1215B"/>
<path d="M297.57 163.147C298.146 163.704 299.615 163.11 300.879 161.829C302.125 160.548 302.664 159.045 302.087 158.488C301.511 157.931 300.042 158.525 298.778 159.806C297.533 161.105 296.993 162.59 297.57 163.147Z" fill="#E1215B"/>
<path d="M293.35 160.604C294.13 160.752 295.097 159.156 294.93 157.022C294.781 154.887 293.591 153.44 292.848 153.699C292.085 153.959 291.918 155.5 292.03 157.226C292.16 158.934 292.55 160.437 293.35 160.604Z" fill="#E1215B"/>
<path d="M289.854 164.279C289.334 164.891 289.743 166.116 290.672 167.119C291.621 168.121 292.81 168.622 293.442 168.14C294.075 167.657 293.851 166.265 292.792 165.133C291.751 164.019 290.375 163.685 289.854 164.279Z" fill="#E1215B"/>
<path d="M291.658 176.659C292.457 176.64 293.071 175.415 292.81 173.986C292.55 172.538 291.565 171.61 290.803 171.87C290.04 172.13 289.724 173.281 289.947 174.506C290.17 175.694 290.858 176.677 291.658 176.659Z" fill="#E1215B"/>
<path d="M298.704 172C298.109 172.538 297.886 173.262 298.09 173.671C298.313 174.079 299.02 174.283 299.819 174.116C300.6 173.949 301.065 173.095 300.674 172.334C300.265 171.555 299.299 171.462 298.704 172Z" fill="#E1215B"/>
<path d="M286.638 150.618C285.894 150.897 285.857 152.697 286.88 154.498C287.902 156.317 289.464 157.226 290.078 156.725C290.71 156.224 290.301 154.665 289.408 153.068C288.516 151.509 287.4 150.34 286.638 150.618Z" fill="#E1215B"/>
<path d="M292.587 149.839C292.55 150.637 294.112 151.379 296.101 151.491C298.09 151.602 299.726 151.045 299.782 150.247C299.819 149.449 298.258 148.707 296.268 148.595C294.279 148.484 292.643 149.041 292.587 149.839Z" fill="#E1215B"/>
<path d="M305.527 162.738C306.159 163.24 307.256 162.905 307.999 161.977C308.743 161.068 308.817 159.917 308.204 159.416C307.572 158.915 306.475 159.249 305.731 160.177C304.988 161.087 304.895 162.237 305.527 162.738Z" fill="#E1215B"/>
<path d="M317.313 168.938C317.871 169.513 319.693 168.622 320.902 166.599C322.11 164.576 322.017 162.553 321.255 162.349C320.474 162.126 319.396 163.462 318.392 165.114C317.425 166.785 316.756 168.362 317.313 168.938Z" fill="#E1215B"/>
<path d="M323.467 168.845C323.672 169.624 324.824 169.996 326.033 169.662C327.241 169.346 328.059 168.455 327.855 167.676C327.65 166.896 326.497 166.525 325.289 166.859C324.081 167.193 323.263 168.065 323.467 168.845Z" fill="#E1215B"/>
<path d="M364.238 212.295C365.037 212.184 365.409 210.29 365.093 208.082C364.777 205.873 363.866 204.184 363.066 204.295C362.267 204.407 361.895 206.3 362.211 208.509C362.546 210.699 363.457 212.406 364.238 212.295Z" fill="#E1215B"/>
<path d="M353.287 211.033C354.012 211.367 355.518 209.697 356.634 207.302C357.768 204.908 358.084 202.681 357.359 202.347C356.634 202.012 355.128 203.683 354.012 206.077C352.897 208.472 352.562 210.699 353.287 211.033Z" fill="#E1215B"/>
<path d="M343.676 204.295C344.196 204.908 346.241 203.998 348.398 202.458C350.536 200.917 352.06 199.284 351.651 198.597C351.242 197.911 348.974 198.486 346.706 200.101C344.438 201.734 343.155 203.701 343.676 204.295Z" fill="#E1215B"/>
<path d="M358.437 193.011C357.693 193.308 357.582 194.755 358.177 196.259C358.772 197.744 359.869 198.727 360.612 198.412C361.356 198.115 361.467 196.667 360.873 195.164C360.259 193.679 359.162 192.714 358.437 193.011Z" fill="#E1215B"/>
<path d="M343.285 212.778C343.917 213.26 345.275 212.555 346.316 211.181C347.357 209.826 347.673 208.323 347.022 207.84C346.39 207.358 345.033 208.063 343.992 209.437C342.969 210.792 342.653 212.295 343.285 212.778Z" fill="#E1215B"/>
<path d="M359.218 215.747C360.017 215.859 360.798 214.931 360.984 213.687C361.17 212.425 360.668 211.33 359.869 211.218C359.069 211.107 358.288 212.035 358.102 213.279C357.935 214.522 358.437 215.636 359.218 215.747Z" fill="#E1215B"/>
<path d="M328.45 201.122C328.654 201.901 331.22 202.031 334.176 201.419C337.132 200.806 339.437 199.674 339.325 198.876C339.214 198.078 336.648 197.948 333.599 198.579C330.532 199.191 328.245 200.342 328.45 201.122Z" fill="#E1215B"/>
<path d="M330.234 212.518C330.736 213.13 332.837 212.258 334.901 210.569C336.964 208.861 338.229 206.987 337.708 206.374C337.206 205.762 335.105 206.634 333.042 208.323C330.978 210.031 329.714 211.905 330.234 212.518Z" fill="#E1215B"/>
<path d="M319.823 209.307C320.065 210.068 321.813 210.216 323.727 209.622C325.642 209.028 326.999 207.933 326.776 207.154C326.535 206.393 324.787 206.244 322.872 206.838C320.939 207.451 319.582 208.546 319.823 209.307Z" fill="#E1215B"/>
<path d="M311.569 211.218C311.532 212.035 312.684 212.74 314.004 213.353C315.343 213.947 316.644 214.337 317.221 213.78C317.797 213.242 317.072 211.571 315.194 210.717C313.316 209.882 311.587 210.439 311.569 211.218Z" fill="#E1215B"/>
<path d="M314.172 204.277C314.562 204.982 316.086 204.871 317.592 204.036C319.098 203.2 319.991 201.957 319.6 201.251C319.21 200.546 317.685 200.658 316.179 201.511C314.674 202.328 313.781 203.572 314.172 204.277Z" fill="#E1215B"/>
<path d="M305.694 203.423C305.322 204.147 305.713 205.094 306.233 205.892C306.791 206.671 307.553 207.376 308.353 207.284C309.152 207.209 309.617 205.687 308.631 204.24C307.646 202.829 306.047 202.718 305.694 203.423Z" fill="#E1215B"/>
<path d="M297.031 209.901C297.012 210.699 298.536 211.404 300.451 211.46C302.366 211.515 303.946 210.921 303.965 210.123C303.984 209.325 302.459 208.62 300.544 208.564C298.629 208.509 297.068 209.103 297.031 209.901Z" fill="#E1215B"/>
<path d="M295.785 205.261C296.101 206.003 297.625 206.059 299.169 205.39C300.73 204.722 301.716 203.59 301.399 202.848C301.083 202.105 299.559 202.05 298.016 202.718C296.473 203.386 295.469 204.537 295.785 205.261Z" fill="#E1215B"/>
<path d="M289.873 207.525C290.672 207.414 291.156 206.207 290.672 204.889C290.189 203.59 289.036 202.978 288.367 203.404C287.679 203.831 287.586 204.908 287.958 205.892C288.311 206.875 289.074 207.636 289.873 207.525Z" fill="#E1215B"/>
<path d="M336.89 131.835C336.221 131.39 334.752 132.448 333.599 134.192C332.447 135.937 332.056 137.7 332.726 138.146C333.395 138.591 334.864 137.533 336.016 135.789C337.169 134.062 337.559 132.281 336.89 131.835Z" fill="#E1215B"/>
<path d="M324.676 129.237C324.006 129.664 324.564 131.761 325.94 133.914C327.316 136.067 328.989 137.459 329.658 137.032C330.327 136.605 329.77 134.508 328.394 132.355C327.018 130.202 325.363 128.791 324.676 129.237Z" fill="#E1215B"/>
<path d="M317.946 137.366C317.667 138.109 319.024 139.315 320.976 140.058C322.928 140.8 324.75 140.781 325.029 140.02C325.308 139.278 323.951 138.072 321.998 137.329C320.046 136.605 318.224 136.605 317.946 137.366Z" fill="#E1215B"/>
<path d="M319.749 150.377C320.232 151.008 321.98 150.507 323.523 149.078C325.066 147.63 325.68 145.923 325.085 145.403C324.471 144.883 322.965 145.644 321.552 146.962C320.121 148.28 319.266 149.728 319.749 150.377Z" fill="#E1215B"/>
<path d="M330.495 155.537C331.257 155.723 332.391 153.699 332.224 150.99C332.056 148.28 330.681 146.405 329.955 146.702C329.193 146.981 329.212 148.929 329.323 151.175C329.472 153.421 329.695 155.37 330.495 155.537Z" fill="#E1215B"/>
<path d="M327.13 143.027C327.353 143.807 328.617 144.122 329.955 143.751C331.294 143.38 332.205 142.452 332 141.672C331.777 140.893 330.513 140.577 329.175 140.967C327.817 141.32 326.906 142.248 327.13 143.027Z" fill="#E1215B"/>
<path d="M315.938 128.123C315.287 128.587 315.938 130.592 317.778 132.244C319.6 133.914 321.664 134.359 322.054 133.673C322.463 132.967 321.292 131.538 319.73 130.091C318.15 128.68 316.588 127.641 315.938 128.123Z" fill="#E1215B"/>
<path d="M332.149 123.279C331.368 123.093 330.383 124.504 330.29 126.434C330.179 128.364 331.015 129.868 331.796 129.756C332.595 129.664 333.097 128.234 333.19 126.583C333.283 124.931 332.949 123.464 332.149 123.279Z" fill="#E1215B"/>
<path d="M321.515 118.119C320.734 118.305 320.511 120.142 321.311 122.11C322.091 124.096 323.523 125.265 324.211 124.875C324.917 124.467 324.713 122.815 324.006 121.033C323.281 119.288 322.296 117.933 321.515 118.119Z" fill="#E1215B"/>
<path d="M308.074 135.937C307.999 136.735 309.152 137.496 310.676 137.645C312.182 137.793 313.484 137.255 313.558 136.457C313.632 135.659 312.48 134.898 310.955 134.749C309.449 134.619 308.148 135.139 308.074 135.937Z" fill="#E1215B"/>
<path d="M312.182 146.312C312.461 147.055 314.097 147.203 315.826 146.647C317.555 146.09 318.782 144.995 318.578 144.234C318.373 143.454 316.737 143.306 314.934 143.9C313.13 144.475 311.903 145.57 312.182 146.312Z" fill="#E1215B"/>
<path d="M323.411 158.043C324.099 158.432 325.419 157.393 325.94 155.593C326.479 153.792 325.94 152.215 325.14 152.159C324.341 152.103 323.597 153.291 323.151 154.757C322.723 156.242 322.705 157.653 323.411 158.043Z" fill="#E1215B"/>
<path d="M330.829 164.984C331.629 165.04 332.354 163.945 332.428 162.571C332.502 161.179 331.926 160.029 331.127 159.991C330.327 159.954 329.621 161.031 329.528 162.404C329.453 163.778 330.03 164.929 330.829 164.984Z" fill="#E1215B"/>
<path d="M312.443 161.402C313.186 161.736 314.45 160.511 315.547 158.841C316.644 157.152 317.239 155.5 316.626 154.962C316.031 154.442 314.339 155.37 313.112 157.263C311.903 159.138 311.718 161.087 312.443 161.402Z" fill="#E1215B"/>
<path d="M303.946 154.646C304.355 155.351 306.177 155.054 308.167 154.238C310.137 153.421 311.662 152.363 311.457 151.584C311.253 150.823 309.245 150.674 307.07 151.565C304.876 152.437 303.556 153.959 303.946 154.646Z" fill="#E1215B"/>
<path d="M303.352 146.108C304.002 146.591 305.006 146.368 305.899 145.904C306.772 145.422 307.535 144.716 307.497 143.918C307.479 143.12 306.029 142.563 304.541 143.343C303.054 144.141 302.719 145.644 303.352 146.108Z" fill="#E1215B"/>
<path d="M327.427 111.196C326.628 111.326 326.274 113.163 326.479 115.298C326.683 117.432 327.39 119.158 328.189 119.14C328.989 119.121 329.584 117.265 329.379 115.019C329.156 112.755 328.208 111.047 327.427 111.196Z" fill="#E1215B"/>
<path d="M310.788 117.469C310.193 118.008 310.825 119.678 312.201 121.219C313.577 122.759 315.175 123.576 315.789 123.038C316.384 122.499 315.752 120.829 314.376 119.288C312.982 117.748 311.383 116.931 310.788 117.469Z" fill="#E1215B"/>
<path d="M308.26 121.386C307.609 120.903 306.754 120.977 306.326 121.553C305.899 122.128 306.066 122.982 306.717 123.464C307.367 123.947 308.222 123.873 308.65 123.297C309.078 122.722 308.91 121.868 308.26 121.386Z" fill="#E1215B"/>
<path d="M352.823 115.818C353.083 116.578 355.128 116.56 357.303 115.558C359.478 114.574 360.835 113.033 360.426 112.347C360.017 111.641 358.121 111.994 356.095 112.922C354.068 113.85 352.562 115.057 352.823 115.818Z" fill="#E1215B"/>
<path d="M361.858 131.557C362.601 131.854 363.736 130.74 364.182 128.995C364.628 127.269 364.163 125.747 363.364 125.636C362.564 125.543 361.765 126.731 361.356 128.272C360.965 129.812 361.096 131.26 361.858 131.557Z" fill="#E1215B"/>
<path d="M350.424 124.652C351.019 125.172 352.488 124.504 353.678 123.149C354.868 121.794 355.351 120.253 354.756 119.734C354.161 119.214 352.692 119.882 351.503 121.237C350.294 122.592 349.811 124.114 350.424 124.652Z" fill="#E1215B"/>
<path d="M355.853 100.728C355.277 101.285 356.318 103.271 358.158 105.145C360.017 107.02 361.969 108.078 362.546 107.521C363.122 106.964 362.081 104.978 360.222 103.104C358.4 101.229 356.429 100.152 355.853 100.728Z" fill="#E1215B"/>
<path d="M364.405 97.2756C363.643 97.5354 363.55 99.2244 364.182 101.043C364.814 102.862 365.948 104.124 366.71 103.846C367.472 103.586 367.565 101.897 366.933 100.078C366.283 98.2778 365.148 97.0157 364.405 97.2756Z" fill="#E1215B"/>
<path d="M364.07 111.196C363.624 111.864 364.293 113.089 365.334 114.184C366.394 115.261 367.603 115.966 368.29 115.539C368.96 115.131 368.718 113.497 367.417 112.161C366.134 110.825 364.516 110.528 364.07 111.196Z" fill="#E1215B"/>
<path d="M367.305 109.229C368.03 109.544 368.997 108.913 369.053 107.762C369.108 106.612 368.197 105.888 367.454 106.147C366.692 106.389 366.19 107.038 366.152 107.632C366.134 108.208 366.561 108.913 367.305 109.229Z" fill="#E1215B"/>
<path d="M351.28 107.372C351.168 108.171 352.525 109.006 354.31 109.266C356.095 109.507 357.638 109.08 357.731 108.282C357.842 107.484 356.485 106.649 354.7 106.389C352.934 106.129 351.391 106.574 351.28 107.372Z" fill="#E1215B"/>
<path d="M357.303 93.6563C356.652 94.1203 357.006 95.7536 358.102 97.2941C359.199 98.8346 360.631 99.707 361.282 99.243C361.932 98.779 361.579 97.1456 360.463 95.6051C359.367 94.0646 357.954 93.1922 357.303 93.6563Z" fill="#E1215B"/>
<path d="M352.005 134.508C352.562 135.065 354.328 134.155 355.37 132.114C356.411 130.091 356.132 128.123 355.351 127.993C354.552 127.845 353.622 129.181 352.785 130.796C351.967 132.411 351.428 133.951 352.005 134.508Z" fill="#E1215B"/>
<path d="M368.569 137.366C369.369 137.44 370.131 136.197 370.001 134.601C369.871 133.005 368.904 131.891 368.142 132.114C367.361 132.318 367.008 133.524 367.101 134.842C367.212 136.16 367.77 137.292 368.569 137.366Z" fill="#E1215B"/>
<path d="M357.749 137.199C357.991 137.96 359.46 138.201 361.04 137.719C362.62 137.236 363.717 136.216 363.475 135.455C363.234 134.694 361.765 134.452 360.185 134.935C358.604 135.417 357.508 136.438 357.749 137.199Z" fill="#E1215B"/>
<path d="M344.048 133.394C344.642 133.933 346.148 133.227 347.375 131.835C348.621 130.443 349.142 128.884 348.547 128.346C347.952 127.808 346.446 128.513 345.219 129.905C343.973 131.297 343.453 132.856 344.048 133.394Z" fill="#E1215B"/>
<path d="M340.868 111.474C340.831 112.272 342.56 113.033 344.773 113.145C346.966 113.275 348.788 112.718 348.844 111.92C348.881 111.122 347.152 110.379 344.94 110.249C342.728 110.138 340.906 110.676 340.868 111.474Z" fill="#E1215B"/>
<path d="M345.163 97.4612C344.773 98.1665 345.888 99.5399 347.673 100.542C349.458 101.544 351.224 101.786 351.614 101.099C352.005 100.394 350.889 99.0202 349.104 98.018C347.32 97.0157 345.553 96.7559 345.163 97.4612Z" fill="#E1215B"/>
<path d="M361.207 90.0741C360.501 90.4453 360.333 91.5404 360.854 92.5055C361.375 93.4707 362.36 93.9718 363.066 93.582C363.773 93.2108 363.94 92.1158 363.42 91.1506C362.918 90.1855 361.914 89.7029 361.207 90.0741Z" fill="#E1215B"/>
<path d="M348.082 89.7771C347.505 90.3339 348.1 91.893 349.402 93.2665C350.722 94.64 352.246 95.2896 352.823 94.7513C353.399 94.1945 352.804 92.6354 351.503 91.262C350.183 89.8885 348.658 89.2203 348.082 89.7771Z" fill="#E1215B"/>
<path d="M339.92 104.236C339.772 105.015 341.073 105.925 342.839 106.259C344.605 106.593 346.148 106.222 346.297 105.442C346.446 104.663 345.144 103.753 343.378 103.419C341.612 103.066 340.069 103.438 339.92 104.236Z" fill="#E1215B"/>
<path d="M338.786 123.372C339.251 124.04 340.943 123.65 342.69 122.685C344.438 121.701 345.646 120.458 345.312 119.715C344.996 118.991 343.137 119.103 341.259 120.142C339.4 121.2 338.34 122.722 338.786 123.372Z" fill="#E1215B"/>
<path d="M290.914 137.051C291.156 137.812 293.182 137.867 295.432 137.162C297.681 136.457 299.317 135.269 299.076 134.489C298.834 133.728 296.807 133.673 294.558 134.397C292.29 135.102 290.672 136.29 290.914 137.051Z" fill="#E1215B"/>
<path d="M290.245 144.735C290.784 145.329 292.197 144.939 293.424 143.862C294.651 142.786 295.209 141.431 294.669 140.819C294.13 140.225 292.717 140.614 291.49 141.691C290.263 142.767 289.706 144.122 290.245 144.735Z" fill="#E1215B"/>
<path d="M289.018 127.121C288.758 127.882 290.468 129.274 292.848 130.258C295.227 131.223 297.421 131.427 297.774 130.703C298.109 129.979 296.398 128.569 293.944 127.566C291.49 126.564 289.278 126.378 289.018 127.121Z" fill="#E1215B"/>
<path d="M285.82 132.299C285.802 133.097 286.917 133.784 288.33 133.821C289.743 133.858 290.895 133.246 290.914 132.448C290.933 131.65 289.817 130.963 288.404 130.926C286.991 130.87 285.839 131.483 285.82 132.299Z" fill="#E1215B"/>
<path d="M282.12 142.545C282.864 142.86 283.961 142.006 285.151 141.134C286.303 140.225 287.419 139.389 287.307 138.591C287.233 138.201 286.768 137.905 286.006 137.886C285.262 137.867 284.258 138.164 283.385 138.833C282.511 139.501 281.953 140.392 281.786 141.115C281.6 141.839 281.767 142.359 282.12 142.545Z" fill="#E1215B"/>
<path d="M282.028 150.136C282.66 150.637 284.128 149.82 285.3 148.317C286.471 146.814 286.917 145.199 286.285 144.716C285.653 144.215 284.184 145.032 283.013 146.535C281.842 148.02 281.395 149.635 282.028 150.136Z" fill="#E1215B"/>
<path d="M311.346 128.123C310.955 127.418 308.724 127.938 306.382 129.274C304.039 130.61 302.459 132.244 302.868 132.93C303.259 133.617 305.489 133.116 307.832 131.78C310.174 130.462 311.755 128.81 311.346 128.123Z" fill="#E1215B"/>
<path d="M301.976 116.523C301.176 116.486 300.414 118.732 300.265 121.553C300.117 124.374 300.656 126.675 301.455 126.713C302.255 126.75 303.017 124.504 303.166 121.683C303.314 118.88 302.775 116.578 301.976 116.523Z" fill="#E1215B"/>
<path d="M290.04 118.583C289.557 119.214 290.579 120.847 292.346 122.202C294.112 123.576 295.934 124.17 296.436 123.539C296.919 122.908 295.897 121.274 294.13 119.919C292.364 118.546 290.542 117.952 290.04 118.583Z" fill="#E1215B"/>
<path d="M278.346 121.033C278.161 121.813 279.834 122.889 282.083 123.446C284.333 124.003 286.322 123.817 286.508 123.038C286.694 122.258 285.021 121.181 282.771 120.625C280.522 120.086 278.532 120.272 278.346 121.033Z" fill="#E1215B"/>
<path d="M275.056 130.536C275.298 131.297 277.045 131.445 278.979 130.87C280.912 130.276 282.288 129.181 282.065 128.42C281.823 127.659 280.075 127.511 278.142 128.086C276.208 128.661 274.833 129.756 275.056 130.536Z" fill="#E1215B"/>
<path d="M267.452 123.056C267.341 123.854 268.568 124.689 270.204 124.931C271.84 125.172 273.271 124.727 273.401 123.947C273.513 123.149 272.286 122.314 270.65 122.072C268.995 121.813 267.564 122.258 267.452 123.056Z" fill="#E1215B"/>
<path d="M271.858 133.858C271.524 134.582 272.453 135.714 274.033 136.067C275.595 136.438 276.934 135.826 276.971 135.046C277.008 134.248 275.967 133.543 274.703 133.246C273.42 132.949 272.193 133.116 271.858 133.858Z" fill="#E1215B"/>
<path d="M267.935 132.485C268.698 132.726 269.664 131.798 269.739 130.35C269.795 128.903 268.902 127.882 268.121 128.067C267.341 128.253 266.876 129.2 266.839 130.22C266.801 131.26 267.173 132.244 267.935 132.485Z" fill="#E1215B"/>
<path d="M273.122 111.753C272.342 111.901 272.007 113.646 272.379 115.669C272.751 117.692 273.699 119.196 274.498 119.047C275.279 118.899 275.614 117.154 275.242 115.131C274.851 113.126 273.903 111.623 273.122 111.753Z" fill="#E1215B"/>
<path d="M266.114 117.544C266.913 117.469 267.452 116.263 267.303 114.852C267.173 113.442 266.411 112.365 265.612 112.44C264.812 112.514 264.273 113.72 264.422 115.131C264.552 116.541 265.314 117.618 266.114 117.544Z" fill="#E1215B"/>
<path d="M261.187 125.191C261.986 125.283 262.786 124.077 262.99 122.481C263.195 120.885 262.693 119.511 261.912 119.418C261.112 119.325 260.313 120.532 260.109 122.128C259.904 123.724 260.406 125.098 261.187 125.191Z" fill="#E1215B"/>
<path d="M367.919 129.292C368.718 129.33 369.462 126.787 369.369 123.631C369.276 120.476 368.383 117.989 367.584 118.063C366.784 118.138 366.375 120.662 366.468 123.724C366.561 126.768 367.119 129.274 367.919 129.292Z" fill="#E1215B"/>
<path d="M358.753 124.671C359.422 125.098 361.151 123.613 362.601 121.349C364.052 119.084 364.665 116.894 363.996 116.467C363.327 116.04 361.598 117.525 360.147 119.789C358.697 122.054 358.065 124.244 358.753 124.671Z" fill="#E1215B"/>
<path d="M297.756 146.182C298.462 146.572 300.191 144.809 301.623 142.248C303.054 139.686 303.649 137.292 302.961 136.902C302.255 136.512 300.526 138.276 299.094 140.837C297.663 143.398 297.068 145.793 297.756 146.182Z" fill="#E1215B"/>
<g opacity="0.2">
<g opacity="0.2">
<g opacity="0.2">
<path opacity="0.2" d="M338.005 140.726C337.206 140.596 336.388 141.672 335.96 143.064C335.551 144.456 335.663 145.793 336.388 146.127C337.113 146.461 338.266 145.496 338.749 143.881C339.214 142.285 338.786 140.837 338.005 140.726Z" fill="white"/>
</g>
</g>
<g opacity="0.2">
<g opacity="0.2">
<path opacity="0.2" d="M335.291 105.479C334.492 105.591 334.064 108.152 334.324 111.215C334.585 114.277 335.44 116.746 336.239 116.708C337.039 116.69 337.485 114.11 337.206 110.973C336.946 107.836 336.072 105.368 335.291 105.479Z" fill="white"/>
</g>
</g>
<g opacity="0.2">
<g opacity="0.2">
<path opacity="0.2" d="M340.459 130.536C341.259 130.499 341.854 129.534 341.37 128.513C340.887 127.492 339.753 127.362 339.214 127.956C338.675 128.55 338.545 129.311 338.749 129.775C338.972 130.202 339.66 130.573 340.459 130.536Z" fill="white"/>
</g>
</g>
<g opacity="0.2">
<g opacity="0.2">
<path opacity="0.2" d="M317.574 108.43C316.793 108.579 316.421 110.101 316.756 111.808C317.09 113.535 318.001 114.797 318.782 114.648C319.563 114.5 319.935 112.978 319.6 111.27C319.266 109.544 318.355 108.263 317.574 108.43Z" fill="white"/>
</g>
</g>
<g opacity="0.2">
<g opacity="0.2">
<path opacity="0.2" d="M292.68 111.14C292.532 111.92 293.87 112.811 295.673 112.681C297.477 112.551 298.667 111.474 298.406 110.732C298.146 109.971 296.863 109.693 295.469 109.785C294.056 109.897 292.81 110.342 292.68 111.14Z" fill="white"/>
</g>
</g>
<g opacity="0.2">
<g opacity="0.2">
<path opacity="0.2" d="M288.311 107.354C288.795 107.985 290.561 107.465 292.234 106.185C293.907 104.904 294.874 103.345 294.391 102.714C293.907 102.083 292.141 102.602 290.468 103.883C288.795 105.164 287.828 106.704 288.311 107.354Z" fill="white"/>
</g>
</g>
<g opacity="0.2">
<g opacity="0.2">
<path opacity="0.2" d="M284.165 104.44C284.965 104.458 285.616 102.473 284.983 100.152C284.37 97.8138 282.808 96.4218 282.139 96.8301C281.433 97.2385 281.674 98.9646 282.176 100.895C282.697 102.807 283.347 104.44 284.165 104.44Z" fill="white"/>
</g>
</g>
<g opacity="0.2">
<g opacity="0.2">
<path opacity="0.2" d="M275.056 102.51C274.461 103.048 275.037 104.644 276.357 106.055C277.659 107.465 279.202 108.189 279.797 107.632C280.392 107.094 279.815 105.498 278.495 104.087C277.194 102.677 275.651 101.953 275.056 102.51Z" fill="white"/>
</g>
</g>
<g opacity="0.2">
<g opacity="0.2">
<path opacity="0.2" d="M279.332 114.203C279.48 114.982 281.228 115.335 283.236 114.982C285.244 114.63 286.768 113.683 286.619 112.904C286.471 112.124 284.723 111.771 282.715 112.124C280.707 112.477 279.183 113.405 279.332 114.203Z" fill="white"/>
</g>
</g>
<g opacity="0.2">
<g opacity="0.2">
<path opacity="0.2" d="M302.348 112.347C302.515 113.126 304.058 113.46 305.787 113.071C307.516 112.681 308.78 111.753 308.613 110.955C308.446 110.175 306.902 109.841 305.173 110.231C303.445 110.621 302.18 111.567 302.348 112.347Z" fill="white"/>
</g>
</g>
<g opacity="0.2">
<g opacity="0.2">
<path opacity="0.2" d="M299.057 104.922C299.466 105.609 300.953 105.498 302.403 104.663C303.854 103.827 304.69 102.584 304.281 101.897C303.872 101.21 302.385 101.322 300.935 102.176C299.485 102.992 298.648 104.217 299.057 104.922Z" fill="white"/>
</g>
</g>
<g opacity="0.2">
<g opacity="0.2">
<path opacity="0.2" d="M288.516 99.2616C289.204 99.6328 290.542 98.5377 290.97 96.6445C291.416 94.7514 290.691 93.1737 289.91 93.2108C289.092 93.248 288.497 94.5101 288.144 95.9949C287.809 97.4798 287.809 98.8718 288.516 99.2616Z" fill="white"/>
</g>
</g>
<g opacity="0.2">
<g opacity="0.2">
<path opacity="0.2" d="M275.93 95.4381C275.223 95.8093 275.037 96.8672 275.539 97.8138C276.041 98.7604 277.008 99.2244 277.714 98.8532C278.421 98.482 278.607 97.4241 278.105 96.4775C277.621 95.5309 276.655 95.0669 275.93 95.4381Z" fill="white"/>
</g>
</g>
<g opacity="0.2">
<g opacity="0.2">
<path opacity="0.2" d="M268.623 106.482C268.419 107.261 269.107 108.115 270.148 108.393C271.207 108.672 272.23 108.282 272.434 107.502C272.639 106.723 271.951 105.869 270.91 105.591C269.85 105.312 268.828 105.721 268.623 106.482Z" fill="white"/>
</g>
</g>
<g opacity="0.2">
<g opacity="0.2">
<path opacity="0.2" d="M302.738 92.023C302.31 91.3548 300.303 91.9116 298.685 93.712C297.068 95.5123 296.715 97.554 297.421 97.9066C298.146 98.2779 299.485 97.1271 300.842 95.6423C302.18 94.1574 303.184 92.7097 302.738 92.023Z" fill="white"/>
</g>
</g>
<g opacity="0.2">
<g opacity="0.2">
<path opacity="0.2" d="M284.482 88.1995C283.682 88.1995 283.031 89.2018 283.031 90.4453C283.031 91.6889 283.682 92.6911 284.482 92.6911C285.281 92.6911 285.932 91.6889 285.932 90.4453C285.932 89.2018 285.281 88.1995 284.482 88.1995Z" fill="white"/>
</g>
</g>
<g opacity="0.2">
<g opacity="0.2">
<path opacity="0.2" d="M315.51 103.363C315.25 102.602 313.409 102.547 311.42 103.215C309.412 103.902 307.999 105.052 308.26 105.813C308.52 106.574 310.342 106.63 312.35 105.962C314.358 105.294 315.77 104.124 315.51 103.363Z" fill="white"/>
</g>
</g>
<g opacity="0.2">
<g opacity="0.2">
<path opacity="0.2" d="M307.237 96.8672C307.795 97.4426 308.966 97.2013 309.821 96.3476C310.676 95.4938 310.918 94.343 310.36 93.7676C309.803 93.1923 308.631 93.4336 307.776 94.2873C306.921 95.1411 306.679 96.2919 307.237 96.8672Z" fill="white"/>
</g>
</g>
<g opacity="0.2">
<g opacity="0.2">
<path opacity="0.2" d="M294.242 85.0813C293.442 85.0256 292.699 86.1764 292.587 87.6612C292.476 89.1461 293.033 90.3896 293.833 90.4453C294.632 90.501 295.376 89.3502 295.488 87.8654C295.599 86.3991 295.041 85.1556 294.242 85.0813Z" fill="white"/>
</g>
</g>
<g opacity="0.2">
<g opacity="0.2">
<path opacity="0.2" d="M328.654 102.491C327.91 102.788 327.855 104.459 328.561 106.259C329.249 108.059 330.42 109.266 331.182 108.987C331.926 108.69 331.982 107.02 331.275 105.219C330.569 103.419 329.416 102.213 328.654 102.491Z" fill="white"/>
</g>
</g>
<g opacity="0.2">
<g opacity="0.2">
<path opacity="0.2" d="M323.374 101.953C322.593 101.804 321.664 103.141 321.329 104.941C320.995 106.741 321.348 108.319 322.129 108.468C322.909 108.616 323.839 107.28 324.174 105.479C324.527 103.679 324.155 102.101 323.374 101.953Z" fill="white"/>
</g>
</g>
<g opacity="0.2">
<g opacity="0.2">
<path opacity="0.2" d="M312.145 99.2615C312.182 100.06 313.725 100.635 315.566 100.524C317.406 100.431 318.875 99.6884 318.838 98.8903C318.801 98.0922 317.258 97.5168 315.417 97.6282C313.558 97.7396 312.108 98.4634 312.145 99.2615Z" fill="white"/>
</g>
</g>
<g opacity="0.2">
<g opacity="0.2">
<path opacity="0.2" d="M333.283 98.4449C333.116 99.2244 334.194 100.134 335.7 100.449C337.206 100.783 338.582 100.412 338.749 99.6327C338.916 98.8532 337.838 97.9437 336.332 97.6282C334.808 97.2941 333.451 97.6653 333.283 98.4449Z" fill="white"/>
</g>
</g>
<g opacity="0.2">
<g opacity="0.2">
<path opacity="0.2" d="M323.411 95.4752C323.132 96.2176 323.913 97.2199 325.159 97.6839C326.405 98.1479 327.65 97.9252 327.929 97.1828C328.208 96.4404 327.427 95.4381 326.181 94.9741C324.936 94.5101 323.69 94.7328 323.411 95.4752Z" fill="white"/>
</g>
</g>
<g opacity="0.2">
<g opacity="0.2">
<path opacity="0.2" d="M332.224 92.8396C332.149 93.6192 334.343 94.4915 337.132 94.2502C339.92 94.0275 341.947 92.8025 341.724 92.0415C341.519 91.262 339.381 91.1692 336.89 91.3733C334.38 91.5775 332.298 92.0415 332.224 92.8396Z" fill="white"/>
</g>
</g>
<g opacity="0.2">
<g opacity="0.2">
<path opacity="0.2" d="M327.446 89.0904C327.762 89.8328 330.03 89.5544 332.502 88.4779C334.975 87.4014 336.723 85.9351 336.407 85.1927C336.091 84.4503 333.822 84.7287 331.35 85.8052C328.877 86.8817 327.13 88.348 327.446 89.0904Z" fill="white"/>
</g>
</g>
<g opacity="0.2">
<g opacity="0.2">
<path opacity="0.2" d="M300.693 85.4525C300.358 86.195 301.195 87.2715 302.441 88.1067C303.686 88.9234 305.025 89.2574 305.564 88.6635C306.103 88.0696 305.489 86.6404 304.039 85.6938C302.571 84.7101 301.009 84.7287 300.693 85.4525Z" fill="white"/>
</g>
</g>
<g opacity="0.2">
<g opacity="0.2">
<path opacity="0.2" d="M341.928 87.0673C342.226 87.8097 343.397 88.051 344.568 87.587C345.721 87.123 346.427 86.1578 346.13 85.4154C345.832 84.673 344.661 84.4317 343.49 84.8957C342.337 85.3412 341.631 86.3249 341.928 87.0673Z" fill="white"/>
</g>
</g>
<g opacity="0.2">
<g opacity="0.2">
<path opacity="0.2" d="M301.901 168.232C301.883 169.03 303.798 169.754 306.177 169.829C308.576 169.903 310.528 169.327 310.546 168.529C310.565 167.731 308.65 167.026 306.27 166.933C303.891 166.84 301.939 167.416 301.901 168.232Z" fill="white"/>
</g>
</g>
<g opacity="0.2">
<g opacity="0.2">
<path opacity="0.2" d="M297.57 163.147C298.146 163.704 299.615 163.11 300.879 161.829C302.125 160.548 302.664 159.045 302.087 158.488C301.511 157.931 300.042 158.525 298.778 159.806C297.533 161.105 296.993 162.59 297.57 163.147Z" fill="white"/>
</g>
</g>
<g opacity="0.2">
<g opacity="0.2">
<path opacity="0.2" d="M293.35 160.604C294.13 160.752 295.097 159.156 294.93 157.022C294.781 154.887 293.591 153.44 292.848 153.699C292.085 153.959 291.918 155.5 292.03 157.226C292.16 158.934 292.55 160.437 293.35 160.604Z" fill="white"/>
</g>
</g>
<g opacity="0.2">
<g opacity="0.2">
<path opacity="0.2" d="M289.854 164.279C289.334 164.891 289.743 166.116 290.672 167.119C291.621 168.121 292.81 168.622 293.442 168.14C294.075 167.657 293.851 166.265 292.792 165.133C291.751 164.019 290.375 163.685 289.854 164.279Z" fill="white"/>
</g>
</g>
<g opacity="0.2">
<g opacity="0.2">
<path opacity="0.2" d="M291.658 176.659C292.457 176.64 293.071 175.415 292.81 173.986C292.55 172.538 291.565 171.61 290.803 171.87C290.04 172.13 289.724 173.281 289.947 174.506C290.17 175.694 290.858 176.677 291.658 176.659Z" fill="white"/>
</g>
</g>
<g opacity="0.2">
<g opacity="0.2">
<path opacity="0.2" d="M298.704 172C298.109 172.538 297.886 173.262 298.09 173.671C298.313 174.079 299.02 174.283 299.819 174.116C300.6 173.949 301.065 173.095 300.674 172.334C300.265 171.555 299.299 171.462 298.704 172Z" fill="white"/>
</g>
</g>
<g opacity="0.2">
<g opacity="0.2">
<path opacity="0.2" d="M286.638 150.618C285.894 150.897 285.857 152.697 286.88 154.498C287.902 156.317 289.464 157.226 290.078 156.725C290.71 156.224 290.301 154.665 289.408 153.068C288.516 151.509 287.4 150.34 286.638 150.618Z" fill="white"/>
</g>
</g>
<g opacity="0.2">
<g opacity="0.2">
<path opacity="0.2" d="M292.587 149.839C292.55 150.637 294.112 151.379 296.101 151.491C298.09 151.602 299.726 151.045 299.782 150.247C299.819 149.449 298.258 148.707 296.268 148.595C294.279 148.484 292.643 149.041 292.587 149.839Z" fill="white"/>
</g>
</g>
<g opacity="0.2">
<g opacity="0.2">
<path opacity="0.2" d="M305.527 162.738C306.159 163.24 307.256 162.905 307.999 161.977C308.743 161.068 308.817 159.917 308.204 159.416C307.572 158.915 306.475 159.249 305.731 160.177C304.988 161.087 304.895 162.237 305.527 162.738Z" fill="white"/>
</g>
</g>
<g opacity="0.2">
<g opacity="0.2">
<path opacity="0.2" d="M317.313 168.938C317.871 169.513 319.693 168.622 320.902 166.599C322.11 164.576 322.017 162.553 321.255 162.349C320.474 162.126 319.396 163.462 318.392 165.114C317.425 166.785 316.756 168.362 317.313 168.938Z" fill="white"/>
</g>
</g>
<g opacity="0.2">
<g opacity="0.2">
<path opacity="0.2" d="M323.467 168.845C323.672 169.624 324.824 169.996 326.033 169.662C327.241 169.346 328.059 168.455 327.855 167.676C327.65 166.896 326.497 166.525 325.289 166.859C324.081 167.193 323.263 168.065 323.467 168.845Z" fill="white"/>
</g>
</g>
<g opacity="0.2">
<g opacity="0.2">
<path opacity="0.2" d="M364.238 212.295C365.037 212.184 365.409 210.29 365.093 208.082C364.777 205.873 363.866 204.184 363.066 204.295C362.267 204.407 361.895 206.3 362.211 208.509C362.546 210.699 363.457 212.406 364.238 212.295Z" fill="white"/>
</g>
</g>
<g opacity="0.2">
<g opacity="0.2">
<path opacity="0.2" d="M353.287 211.033C354.012 211.367 355.518 209.697 356.634 207.302C357.768 204.908 358.084 202.681 357.359 202.347C356.634 202.012 355.128 203.683 354.012 206.077C352.897 208.472 352.562 210.699 353.287 211.033Z" fill="white"/>
</g>
</g>
<g opacity="0.2">
<g opacity="0.2">
<path opacity="0.2" d="M343.676 204.295C344.196 204.908 346.241 203.998 348.398 202.458C350.536 200.917 352.06 199.284 351.651 198.597C351.242 197.911 348.974 198.486 346.706 200.101C344.438 201.734 343.155 203.701 343.676 204.295Z" fill="white"/>
</g>
</g>
<g opacity="0.2">
<g opacity="0.2">
<path opacity="0.2" d="M358.437 193.011C357.693 193.308 357.582 194.755 358.177 196.259C358.772 197.744 359.869 198.727 360.612 198.412C361.356 198.115 361.467 196.667 360.873 195.164C360.259 193.679 359.162 192.714 358.437 193.011Z" fill="white"/>
</g>
</g>
<g opacity="0.2">
<g opacity="0.2">
<path opacity="0.2" d="M343.285 212.778C343.917 213.26 345.275 212.555 346.316 211.181C347.357 209.826 347.673 208.323 347.022 207.84C346.39 207.358 345.033 208.063 343.992 209.437C342.969 210.792 342.653 212.295 343.285 212.778Z" fill="white"/>
</g>
</g>
<g opacity="0.2">
<g opacity="0.2">
<path opacity="0.2" d="M359.218 215.747C360.017 215.859 360.798 214.931 360.984 213.687C361.17 212.425 360.668 211.33 359.869 211.218C359.069 211.107 358.288 212.035 358.102 213.279C357.935 214.522 358.437 215.636 359.218 215.747Z" fill="white"/>
</g>
</g>
<g opacity="0.2">
<g opacity="0.2">
<path opacity="0.2" d="M328.45 201.122C328.654 201.901 331.22 202.031 334.176 201.419C337.132 200.806 339.437 199.674 339.325 198.876C339.214 198.078 336.648 197.948 333.599 198.579C330.532 199.191 328.245 200.342 328.45 201.122Z" fill="white"/>
</g>
</g>
<g opacity="0.2">
<g opacity="0.2">
<path opacity="0.2" d="M330.234 212.518C330.736 213.13 332.837 212.258 334.901 210.569C336.964 208.861 338.229 206.987 337.708 206.374C337.206 205.762 335.105 206.634 333.042 208.323C330.978 210.031 329.714 211.905 330.234 212.518Z" fill="white"/>
</g>
</g>
<g opacity="0.2">
<g opacity="0.2">
<path opacity="0.2" d="M319.823 209.307C320.065 210.068 321.813 210.216 323.727 209.622C325.642 209.028 326.999 207.933 326.776 207.154C326.535 206.393 324.787 206.244 322.872 206.838C320.939 207.451 319.582 208.546 319.823 209.307Z" fill="white"/>
</g>
</g>
<g opacity="0.2">
<g opacity="0.2">
<path opacity="0.2" d="M311.569 211.218C311.532 212.035 312.684 212.74 314.004 213.353C315.343 213.947 316.644 214.337 317.221 213.78C317.797 213.242 317.072 211.571 315.194 210.717C313.316 209.882 311.587 210.439 311.569 211.218Z" fill="white"/>
</g>
</g>
<g opacity="0.2">
<g opacity="0.2">
<path opacity="0.2" d="M314.172 204.277C314.562 204.982 316.086 204.871 317.592 204.036C319.098 203.2 319.991 201.957 319.6 201.251C319.21 200.546 317.685 200.658 316.179 201.511C314.674 202.328 313.781 203.572 314.172 204.277Z" fill="white"/>
</g>
</g>
<g opacity="0.2">
<g opacity="0.2">
<path opacity="0.2" d="M305.694 203.423C305.322 204.147 305.713 205.094 306.233 205.892C306.791 206.671 307.553 207.376 308.353 207.284C309.152 207.209 309.617 205.687 308.631 204.24C307.646 202.829 306.047 202.718 305.694 203.423Z" fill="white"/>
</g>
</g>
<g opacity="0.2">
<g opacity="0.2">
<path opacity="0.2" d="M297.031 209.901C297.012 210.699 298.536 211.404 300.451 211.46C302.366 211.515 303.946 210.921 303.965 210.123C303.984 209.325 302.459 208.62 300.544 208.564C298.629 208.509 297.068 209.103 297.031 209.901Z" fill="white"/>
</g>
</g>
<g opacity="0.2">
<g opacity="0.2">
<path opacity="0.2" d="M295.785 205.261C296.101 206.003 297.625 206.059 299.169 205.39C300.73 204.722 301.716 203.59 301.399 202.848C301.083 202.105 299.559 202.05 298.016 202.718C296.473 203.386 295.469 204.537 295.785 205.261Z" fill="white"/>
</g>
</g>
<g opacity="0.2">
<g opacity="0.2">
<path opacity="0.2" d="M289.873 207.525C290.672 207.414 291.156 206.207 290.672 204.889C290.189 203.59 289.036 202.978 288.367 203.404C287.679 203.831 287.586 204.908 287.958 205.892C288.311 206.875 289.074 207.636 289.873 207.525Z" fill="white"/>
</g>
</g>
<g opacity="0.2">
<g opacity="0.2">
<path opacity="0.2" d="M336.89 131.835C336.221 131.39 334.752 132.448 333.599 134.192C332.447 135.937 332.056 137.7 332.726 138.146C333.395 138.591 334.864 137.533 336.016 135.789C337.169 134.062 337.559 132.281 336.89 131.835Z" fill="white"/>
</g>
</g>
<g opacity="0.2">
<g opacity="0.2">
<path opacity="0.2" d="M324.676 129.237C324.006 129.664 324.564 131.761 325.94 133.914C327.316 136.067 328.989 137.459 329.658 137.032C330.327 136.605 329.77 134.508 328.394 132.355C327.018 130.202 325.363 128.791 324.676 129.237Z" fill="white"/>
</g>
</g>
<g opacity="0.2">
<g opacity="0.2">
<path opacity="0.2" d="M317.946 137.366C317.667 138.109 319.024 139.315 320.976 140.058C322.928 140.8 324.75 140.781 325.029 140.02C325.308 139.278 323.951 138.072 321.998 137.329C320.046 136.605 318.224 136.605 317.946 137.366Z" fill="white"/>
</g>
</g>
<g opacity="0.2">
<g opacity="0.2">
<path opacity="0.2" d="M319.749 150.377C320.232 151.008 321.98 150.507 323.523 149.078C325.066 147.63 325.68 145.923 325.085 145.403C324.471 144.883 322.965 145.644 321.552 146.962C320.121 148.28 319.266 149.728 319.749 150.377Z" fill="white"/>
</g>
</g>
<g opacity="0.2">
<g opacity="0.2">
<path opacity="0.2" d="M330.495 155.537C331.257 155.723 332.391 153.699 332.224 150.99C332.056 148.28 330.681 146.405 329.955 146.702C329.193 146.981 329.212 148.929 329.323 151.175C329.472 153.421 329.695 155.37 330.495 155.537Z" fill="white"/>
</g>
</g>
<g opacity="0.2">
<g opacity="0.2">
<path opacity="0.2" d="M327.13 143.027C327.353 143.807 328.617 144.122 329.955 143.751C331.294 143.38 332.205 142.452 332 141.672C331.777 140.893 330.513 140.577 329.175 140.967C327.817 141.32 326.906 142.248 327.13 143.027Z" fill="white"/>
</g>
</g>
<g opacity="0.2">
<g opacity="0.2">
<path opacity="0.2" d="M315.938 128.123C315.287 128.587 315.938 130.592 317.778 132.244C319.6 133.914 321.664 134.359 322.054 133.673C322.463 132.967 321.292 131.538 319.73 130.091C318.15 128.68 316.588 127.641 315.938 128.123Z" fill="white"/>
</g>
</g>
<g opacity="0.2">
<g opacity="0.2">
<path opacity="0.2" d="M332.149 123.279C331.368 123.093 330.383 124.504 330.29 126.434C330.179 128.364 331.015 129.868 331.796 129.756C332.595 129.664 333.097 128.234 333.19 126.583C333.283 124.931 332.949 123.464 332.149 123.279Z" fill="white"/>
</g>
</g>
<g opacity="0.2">
<g opacity="0.2">
<path opacity="0.2" d="M321.515 118.119C320.734 118.305 320.511 120.142 321.311 122.11C322.091 124.096 323.523 125.265 324.211 124.875C324.917 124.467 324.713 122.815 324.006 121.033C323.281 119.288 322.296 117.933 321.515 118.119Z" fill="white"/>
</g>
</g>
<g opacity="0.2">
<g opacity="0.2">
<path opacity="0.2" d="M308.074 135.937C307.999 136.735 309.152 137.496 310.676 137.645C312.182 137.793 313.484 137.255 313.558 136.457C313.632 135.659 312.48 134.898 310.955 134.749C309.449 134.619 308.148 135.139 308.074 135.937Z" fill="white"/>
</g>
</g>
<g opacity="0.2">
<g opacity="0.2">
<path opacity="0.2" d="M312.182 146.312C312.461 147.055 314.097 147.203 315.826 146.647C317.555 146.09 318.782 144.995 318.578 144.234C318.373 143.454 316.737 143.306 314.934 143.9C313.13 144.475 311.903 145.57 312.182 146.312Z" fill="white"/>
</g>
</g>
<g opacity="0.2">
<g opacity="0.2">
<path opacity="0.2" d="M323.411 158.043C324.099 158.432 325.419 157.393 325.94 155.593C326.479 153.792 325.94 152.215 325.14 152.159C324.341 152.103 323.597 153.291 323.151 154.757C322.723 156.242 322.705 157.653 323.411 158.043Z" fill="white"/>
</g>
</g>
<g opacity="0.2">
<g opacity="0.2">
<path opacity="0.2" d="M330.829 164.984C331.629 165.04 332.354 163.945 332.428 162.571C332.502 161.179 331.926 160.029 331.127 159.991C330.327 159.954 329.621 161.031 329.528 162.404C329.453 163.778 330.03 164.929 330.829 164.984Z" fill="white"/>
</g>
</g>
<g opacity="0.2">
<g opacity="0.2">
<path opacity="0.2" d="M312.443 161.402C313.186 161.736 314.45 160.511 315.547 158.841C316.644 157.152 317.239 155.5 316.626 154.962C316.031 154.442 314.339 155.37 313.112 157.263C311.903 159.138 311.718 161.087 312.443 161.402Z" fill="white"/>
</g>
</g>
<g opacity="0.2">
<g opacity="0.2">
<path opacity="0.2" d="M303.946 154.646C304.355 155.351 306.177 155.054 308.167 154.238C310.137 153.421 311.662 152.363 311.457 151.584C311.253 150.823 309.245 150.674 307.07 151.565C304.876 152.437 303.556 153.959 303.946 154.646Z" fill="white"/>
</g>
</g>
<g opacity="0.2">
<g opacity="0.2">
<path opacity="0.2" d="M303.352 146.108C304.002 146.591 305.006 146.368 305.899 145.904C306.772 145.422 307.535 144.716 307.497 143.918C307.479 143.12 306.029 142.563 304.541 143.343C303.054 144.141 302.719 145.644 303.352 146.108Z" fill="white"/>
</g>
</g>
<g opacity="0.2">
<g opacity="0.2">
<path opacity="0.2" d="M327.427 111.196C326.628 111.326 326.274 113.163 326.479 115.298C326.683 117.432 327.39 119.158 328.189 119.14C328.989 119.121 329.584 117.265 329.379 115.019C329.156 112.755 328.208 111.047 327.427 111.196Z" fill="white"/>
</g>
</g>
<g opacity="0.2">
<g opacity="0.2">
<path opacity="0.2" d="M310.788 117.469C310.193 118.008 310.825 119.678 312.201 121.219C313.577 122.759 315.175 123.576 315.789 123.038C316.384 122.499 315.752 120.829 314.376 119.288C312.982 117.748 311.383 116.931 310.788 117.469Z" fill="white"/>
</g>
</g>
<g opacity="0.2">
<g opacity="0.2">
<path opacity="0.2" d="M308.26 121.386C307.609 120.903 306.754 120.977 306.326 121.553C305.899 122.128 306.066 122.982 306.717 123.464C307.367 123.947 308.222 123.873 308.65 123.297C309.078 122.722 308.91 121.868 308.26 121.386Z" fill="white"/>
</g>
</g>
<g opacity="0.2">
<g opacity="0.2">
<path opacity="0.2" d="M352.823 115.818C353.083 116.578 355.128 116.56 357.303 115.558C359.478 114.574 360.835 113.033 360.426 112.347C360.017 111.641 358.121 111.994 356.095 112.922C354.068 113.85 352.562 115.057 352.823 115.818Z" fill="white"/>
</g>
</g>
<g opacity="0.2">
<g opacity="0.2">
<path opacity="0.2" d="M361.858 131.557C362.601 131.854 363.736 130.74 364.182 128.995C364.628 127.269 364.163 125.747 363.364 125.636C362.564 125.543 361.765 126.731 361.356 128.272C360.965 129.812 361.096 131.26 361.858 131.557Z" fill="white"/>
</g>
</g>
<g opacity="0.2">
<g opacity="0.2">
<path opacity="0.2" d="M350.424 124.652C351.019 125.172 352.488 124.504 353.678 123.149C354.868 121.794 355.351 120.253 354.756 119.734C354.161 119.214 352.692 119.882 351.503 121.237C350.294 122.592 349.811 124.114 350.424 124.652Z" fill="white"/>
</g>
</g>
<g opacity="0.2">
<g opacity="0.2">
<path opacity="0.2" d="M355.853 100.728C355.277 101.285 356.318 103.271 358.158 105.145C360.017 107.02 361.969 108.078 362.546 107.521C363.122 106.964 362.081 104.978 360.222 103.104C358.4 101.229 356.429 100.152 355.853 100.728Z" fill="white"/>
</g>
</g>
<g opacity="0.2">
<g opacity="0.2">
<path opacity="0.2" d="M364.405 97.2756C363.643 97.5354 363.55 99.2244 364.182 101.043C364.814 102.862 365.948 104.124 366.71 103.846C367.472 103.586 367.565 101.897 366.933 100.078C366.283 98.2778 365.148 97.0157 364.405 97.2756Z" fill="white"/>
</g>
</g>
<g opacity="0.2">
<g opacity="0.2">
<path opacity="0.2" d="M364.07 111.196C363.624 111.864 364.293 113.089 365.334 114.184C366.394 115.261 367.603 115.966 368.29 115.539C368.96 115.131 368.718 113.497 367.417 112.161C366.134 110.825 364.516 110.528 364.07 111.196Z" fill="white"/>
</g>
</g>
<g opacity="0.2">
<g opacity="0.2">
<path opacity="0.2" d="M367.305 109.229C368.03 109.544 368.997 108.913 369.053 107.762C369.108 106.612 368.197 105.888 367.454 106.147C366.692 106.389 366.19 107.038 366.152 107.632C366.134 108.208 366.561 108.913 367.305 109.229Z" fill="white"/>
</g>
</g>
<g opacity="0.2">
<g opacity="0.2">
<path opacity="0.2" d="M351.28 107.372C351.168 108.171 352.525 109.006 354.31 109.266C356.095 109.507 357.638 109.08 357.731 108.282C357.842 107.484 356.485 106.649 354.7 106.389C352.934 106.129 351.391 106.574 351.28 107.372Z" fill="white"/>
</g>
</g>
<g opacity="0.2">
<g opacity="0.2">
<path opacity="0.2" d="M357.303 93.6563C356.652 94.1203 357.006 95.7536 358.102 97.2941C359.199 98.8346 360.631 99.707 361.282 99.243C361.932 98.779 361.579 97.1456 360.463 95.6051C359.367 94.0646 357.954 93.1922 357.303 93.6563Z" fill="white"/>
</g>
</g>
<g opacity="0.2">
<g opacity="0.2">
<path opacity="0.2" d="M352.005 134.508C352.562 135.065 354.328 134.155 355.37 132.114C356.411 130.091 356.132 128.123 355.351 127.993C354.552 127.845 353.622 129.181 352.785 130.796C351.967 132.411 351.428 133.951 352.005 134.508Z" fill="white"/>
</g>
</g>
<g opacity="0.2">
<g opacity="0.2">
<path opacity="0.2" d="M368.569 137.366C369.369 137.44 370.131 136.197 370.001 134.601C369.871 133.005 368.904 131.891 368.142 132.114C367.361 132.318 367.008 133.524 367.101 134.842C367.212 136.16 367.77 137.292 368.569 137.366Z" fill="white"/>
</g>
</g>
<g opacity="0.2">
<g opacity="0.2">
<path opacity="0.2" d="M357.749 137.199C357.991 137.96 359.46 138.201 361.04 137.719C362.62 137.236 363.717 136.216 363.475 135.455C363.234 134.694 361.765 134.452 360.185 134.935C358.604 135.417 357.508 136.438 357.749 137.199Z" fill="white"/>
</g>
</g>
<g opacity="0.2">
<g opacity="0.2">
<path opacity="0.2" d="M344.048 133.394C344.642 133.933 346.148 133.227 347.375 131.835C348.621 130.443 349.142 128.884 348.547 128.346C347.952 127.808 346.446 128.513 345.219 129.905C343.973 131.297 343.453 132.856 344.048 133.394Z" fill="white"/>
</g>
</g>
<g opacity="0.2">
<g opacity="0.2">
<path opacity="0.2" d="M340.868 111.474C340.831 112.272 342.56 113.033 344.773 113.145C346.966 113.275 348.788 112.718 348.844 111.92C348.881 111.122 347.152 110.379 344.94 110.249C342.728 110.138 340.906 110.676 340.868 111.474Z" fill="white"/>
</g>
</g>
<g opacity="0.2">
<g opacity="0.2">
<path opacity="0.2" d="M345.163 97.4612C344.773 98.1665 345.888 99.5399 347.673 100.542C349.458 101.544 351.224 101.786 351.614 101.099C352.005 100.394 350.889 99.0202 349.104 98.018C347.32 97.0157 345.553 96.7559 345.163 97.4612Z" fill="white"/>
</g>
</g>
<g opacity="0.2">
<g opacity="0.2">
<path opacity="0.2" d="M361.207 90.0741C360.501 90.4453 360.333 91.5404 360.854 92.5055C361.375 93.4707 362.36 93.9718 363.066 93.582C363.773 93.2108 363.94 92.1158 363.42 91.1506C362.918 90.1855 361.914 89.7029 361.207 90.0741Z" fill="white"/>
</g>
</g>
<g opacity="0.2">
<g opacity="0.2">
<path opacity="0.2" d="M348.082 89.7771C347.505 90.3339 348.1 91.893 349.402 93.2665C350.722 94.64 352.246 95.2896 352.823 94.7513C353.399 94.1945 352.804 92.6354 351.503 91.262C350.183 89.8885 348.658 89.2203 348.082 89.7771Z" fill="white"/>
</g>
</g>
<g opacity="0.2">
<g opacity="0.2">
<path opacity="0.2" d="M339.92 104.236C339.772 105.015 341.073 105.925 342.839 106.259C344.605 106.593 346.148 106.222 346.297 105.442C346.446 104.663 345.144 103.753 343.378 103.419C341.612 103.066 340.069 103.438 339.92 104.236Z" fill="white"/>
</g>
</g>
<g opacity="0.2">
<g opacity="0.2">
<path opacity="0.2" d="M338.786 123.372C339.251 124.04 340.943 123.65 342.69 122.685C344.438 121.701 345.646 120.458 345.312 119.715C344.996 118.991 343.137 119.103 341.259 120.142C339.4 121.2 338.34 122.722 338.786 123.372Z" fill="white"/>
</g>
</g>
<g opacity="0.2">
<g opacity="0.2">
<path opacity="0.2" d="M290.914 137.051C291.156 137.812 293.182 137.867 295.432 137.162C297.681 136.457 299.317 135.269 299.076 134.489C298.834 133.728 296.807 133.673 294.558 134.397C292.29 135.102 290.672 136.29 290.914 137.051Z" fill="white"/>
</g>
</g>
<g opacity="0.2">
<g opacity="0.2">
<path opacity="0.2" d="M290.245 144.735C290.784 145.329 292.197 144.939 293.424 143.862C294.651 142.786 295.209 141.431 294.669 140.819C294.13 140.225 292.717 140.614 291.49 141.691C290.263 142.767 289.706 144.122 290.245 144.735Z" fill="white"/>
</g>
</g>
<g opacity="0.2">
<g opacity="0.2">
<path opacity="0.2" d="M289.018 127.121C288.758 127.882 290.468 129.274 292.848 130.258C295.227 131.223 297.421 131.427 297.774 130.703C298.109 129.979 296.398 128.569 293.944 127.566C291.49 126.564 289.278 126.378 289.018 127.121Z" fill="white"/>
</g>
</g>
<g opacity="0.2">
<g opacity="0.2">
<path opacity="0.2" d="M285.82 132.299C285.802 133.097 286.917 133.784 288.33 133.821C289.743 133.858 290.895 133.246 290.914 132.448C290.933 131.65 289.817 130.963 288.404 130.926C286.991 130.87 285.839 131.483 285.82 132.299Z" fill="white"/>
</g>
</g>
<g opacity="0.2">
<g opacity="0.2">
<path opacity="0.2" d="M282.12 142.545C282.864 142.86 283.961 142.006 285.151 141.134C286.303 140.225 287.419 139.389 287.307 138.591C287.233 138.201 286.768 137.905 286.006 137.886C285.262 137.867 284.258 138.164 283.385 138.833C282.511 139.501 281.953 140.392 281.786 141.115C281.6 141.839 281.767 142.359 282.12 142.545Z" fill="white"/>
</g>
</g>
<g opacity="0.2">
<g opacity="0.2">
<path opacity="0.2" d="M282.028 150.136C282.66 150.637 284.128 149.82 285.3 148.317C286.471 146.814 286.917 145.199 286.285 144.716C285.653 144.215 284.184 145.032 283.013 146.535C281.842 148.02 281.395 149.635 282.028 150.136Z" fill="white"/>
</g>
</g>
<g opacity="0.2">
<g opacity="0.2">
<path opacity="0.2" d="M311.346 128.123C310.955 127.418 308.724 127.938 306.382 129.274C304.039 130.61 302.459 132.244 302.868 132.93C303.259 133.617 305.489 133.116 307.832 131.78C310.174 130.462 311.755 128.81 311.346 128.123Z" fill="white"/>
</g>
</g>
<g opacity="0.2">
<g opacity="0.2">
<path opacity="0.2" d="M301.976 116.523C301.176 116.486 300.414 118.732 300.265 121.553C300.117 124.374 300.656 126.675 301.455 126.713C302.255 126.75 303.017 124.504 303.166 121.683C303.314 118.88 302.775 116.578 301.976 116.523Z" fill="white"/>
</g>
</g>
<g opacity="0.2">
<g opacity="0.2">
<path opacity="0.2" d="M290.04 118.583C289.557 119.214 290.579 120.847 292.346 122.202C294.112 123.576 295.934 124.17 296.436 123.539C296.919 122.908 295.897 121.274 294.13 119.919C292.364 118.546 290.542 117.952 290.04 118.583Z" fill="white"/>
</g>
</g>
<g opacity="0.2">
<g opacity="0.2">
<path opacity="0.2" d="M278.346 121.033C278.161 121.813 279.834 122.889 282.083 123.446C284.333 124.003 286.322 123.817 286.508 123.038C286.694 122.258 285.021 121.181 282.771 120.625C280.522 120.086 278.532 120.272 278.346 121.033Z" fill="white"/>
</g>
</g>
<g opacity="0.2">
<g opacity="0.2">
<path opacity="0.2" d="M275.056 130.536C275.298 131.297 277.045 131.445 278.979 130.87C280.912 130.276 282.288 129.181 282.065 128.42C281.823 127.659 280.075 127.511 278.142 128.086C276.208 128.661 274.833 129.756 275.056 130.536Z" fill="white"/>
</g>
</g>
<g opacity="0.2">
<g opacity="0.2">
<path opacity="0.2" d="M267.452 123.056C267.341 123.854 268.568 124.689 270.204 124.931C271.84 125.172 273.271 124.727 273.401 123.947C273.513 123.149 272.286 122.314 270.65 122.072C268.995 121.813 267.564 122.258 267.452 123.056Z" fill="white"/>
</g>
</g>
<g opacity="0.2">
<g opacity="0.2">
<path opacity="0.2" d="M271.858 133.858C271.524 134.582 272.453 135.714 274.033 136.067C275.595 136.438 276.934 135.826 276.971 135.046C277.008 134.248 275.967 133.543 274.703 133.246C273.42 132.949 272.193 133.116 271.858 133.858Z" fill="white"/>
</g>
</g>
<g opacity="0.2">
<g opacity="0.2">
<path opacity="0.2" d="M267.935 132.485C268.698 132.726 269.664 131.798 269.739 130.35C269.795 128.903 268.902 127.882 268.121 128.067C267.341 128.253 266.876 129.2 266.839 130.22C266.801 131.26 267.173 132.244 267.935 132.485Z" fill="white"/>
</g>
</g>
<g opacity="0.2">
<g opacity="0.2">
<path opacity="0.2" d="M273.122 111.753C272.342 111.901 272.007 113.646 272.379 115.669C272.751 117.692 273.699 119.196 274.498 119.047C275.279 118.899 275.614 117.154 275.242 115.131C274.851 113.126 273.903 111.623 273.122 111.753Z" fill="white"/>
</g>
</g>
<g opacity="0.2">
<g opacity="0.2">
<path opacity="0.2" d="M266.114 117.544C266.913 117.469 267.452 116.263 267.303 114.852C267.173 113.442 266.411 112.365 265.612 112.44C264.812 112.514 264.273 113.72 264.422 115.131C264.552 116.541 265.314 117.618 266.114 117.544Z" fill="white"/>
</g>
</g>
<g opacity="0.2">
<g opacity="0.2">
<path opacity="0.2" d="M261.187 125.191C261.986 125.283 262.786 124.077 262.99 122.481C263.195 120.885 262.693 119.511 261.912 119.418C261.112 119.325 260.313 120.532 260.109 122.128C259.904 123.724 260.406 125.098 261.187 125.191Z" fill="white"/>
</g>
</g>
<g opacity="0.2">
<g opacity="0.2">
<path opacity="0.2" d="M367.919 129.292C368.718 129.33 369.462 126.787 369.369 123.631C369.276 120.476 368.383 117.989 367.584 118.063C366.784 118.138 366.375 120.662 366.468 123.724C366.561 126.768 367.119 129.274 367.919 129.292Z" fill="white"/>
</g>
</g>
<g opacity="0.2">
<g opacity="0.2">
<path opacity="0.2" d="M358.753 124.671C359.422 125.098 361.151 123.613 362.601 121.349C364.052 119.084 364.665 116.894 363.996 116.467C363.327 116.04 361.598 117.525 360.147 119.789C358.697 122.054 358.065 124.244 358.753 124.671Z" fill="white"/>
</g>
</g>
<g opacity="0.2">
<g opacity="0.2">
<path opacity="0.2" d="M297.756 146.182C298.462 146.572 300.191 144.809 301.623 142.248C303.054 139.686 303.649 137.292 302.961 136.902C302.255 136.512 300.526 138.276 299.094 140.837C297.663 143.398 297.068 145.793 297.756 146.182Z" fill="white"/>
</g>
</g>
</g>
<path d="M340.459 106.426C340.292 106.426 340.088 113.442 339.976 122.109C339.865 130.777 339.902 137.812 340.069 137.812C340.236 137.812 340.441 130.796 340.552 122.128C340.664 113.46 340.627 106.426 340.459 106.426Z" fill="#263238"/>
<path d="M338.321 112.087C338.173 112.161 338.675 113.368 339.14 114.889C339.604 116.411 339.846 117.692 340.013 117.674C340.162 117.655 340.181 116.3 339.697 114.722C339.214 113.145 338.452 112.013 338.321 112.087Z" fill="#263238"/>
<path d="M304.634 80.701C304.616 80.701 304.56 80.8681 304.486 81.1836C304.393 81.4991 304.3 81.9817 304.225 82.5942C304.077 83.8378 304.114 85.6938 304.746 87.8654C305.397 89.9999 306.717 92.487 309.022 94.4358C311.29 96.4032 314.618 97.5911 318.076 97.4983C321.534 97.4055 324.787 96.0506 326.962 93.9718C329.156 91.9116 330.346 89.3688 330.904 87.1972C331.424 85.0071 331.368 83.151 331.145 81.9075C331.034 81.295 330.922 80.8124 330.811 80.4969C330.718 80.1813 330.643 80.0143 330.625 80.0329C330.439 80.0329 331.61 82.7798 330.495 87.0858C329.918 89.1832 328.728 91.6146 326.59 93.5635C324.49 95.5309 321.385 96.8116 318.057 96.9044C314.729 96.9786 311.55 95.865 309.356 94.0089C307.126 92.1714 305.806 89.7957 305.118 87.7355C303.798 83.5037 304.82 80.6825 304.634 80.701Z" fill="#263238"/>
<path d="M288.627 117.692C288.553 117.655 288.088 118.527 287.363 119.938C286.434 121.794 285.541 123.557 284.593 125.45C283.626 127.344 282.734 129.107 281.804 130.963C281.098 132.373 280.67 133.264 280.745 133.301C280.819 133.339 281.358 132.522 282.158 131.167C282.957 129.794 284.017 127.882 285.114 125.729C286.211 123.576 287.121 121.59 287.735 120.124C288.348 118.639 288.683 117.711 288.627 117.692Z" fill="#263238"/>
<path d="M229.656 510.729L232.668 493.932L264.217 499.37L260.071 524L258.101 523.796C249.307 522.775 213.482 518.005 207.96 515.239C201.807 512.14 229.656 510.729 229.656 510.729Z" fill="#E1215B"/>
<path d="M248.675 521.773C249.586 519.211 251.464 517.021 253.862 515.759C256.26 514.478 259.012 514.07 261.633 514.738L260.109 523.536L248.675 521.773Z" fill="#E1215B"/>
<path d="M215.973 511.88C215.973 511.88 206.101 512.975 207.012 514.72C207.923 516.464 243.953 522.664 260.09 524L260.164 523.295L218.074 516.427C218.055 516.427 217.795 512.27 215.973 511.88Z" fill="#E1215B"/>
<path d="M260.648 523.35C260.648 523.369 260.462 523.35 260.09 523.313C259.625 523.258 259.105 523.202 258.51 523.146C256.948 522.942 255.015 522.701 252.728 522.404C247.857 521.754 241.127 520.752 233.728 519.49C226.328 518.228 219.654 516.928 214.839 515.926C212.59 515.444 210.693 515.035 209.15 514.701C208.574 514.571 208.072 514.441 207.607 514.349C207.254 514.256 207.068 514.219 207.068 514.2C207.068 514.182 207.254 514.219 207.607 514.274C208.072 514.367 208.593 514.46 209.169 514.571C210.731 514.868 212.627 515.239 214.895 515.666C219.729 516.594 226.403 517.838 233.802 519.119C241.201 520.381 247.913 521.42 252.765 522.144C255.033 522.478 256.967 522.775 258.528 522.998C259.105 523.091 259.625 523.165 260.09 523.239C260.462 523.295 260.648 523.332 260.648 523.35Z" fill="#263238"/>
<path d="M217.981 516.91C217.869 516.91 218 515.518 217.386 513.996C216.791 512.455 215.732 511.546 215.806 511.472C215.843 511.379 217.089 512.214 217.739 513.847C218.409 515.499 218.074 516.947 217.981 516.91Z" fill="#263238"/>
<path d="M228.113 513.792C228.02 513.829 227.667 513.216 227.332 512.418C226.998 511.62 226.812 510.933 226.905 510.896C226.998 510.859 227.351 511.472 227.686 512.27C228.02 513.068 228.206 513.755 228.113 513.792Z" fill="#263238"/>
<path d="M230.902 512.882C230.809 512.956 230.381 512.53 229.917 511.954C229.452 511.379 229.154 510.841 229.229 510.785C229.322 510.711 229.749 511.138 230.214 511.713C230.679 512.288 230.976 512.827 230.902 512.882Z" fill="#263238"/>
<path d="M233.021 510.191C233.003 510.302 232.259 510.265 231.348 510.117C230.437 509.968 229.712 509.764 229.731 509.653C229.749 509.541 230.493 509.579 231.404 509.727C232.315 509.875 233.04 510.08 233.021 510.191Z" fill="#263238"/>
<path d="M233.951 508.186C233.969 508.279 233.096 508.502 232.017 508.409C230.939 508.316 230.121 507.927 230.158 507.834C230.195 507.722 231.013 507.927 232.055 508.019C233.077 508.112 233.932 508.075 233.951 508.186Z" fill="#263238"/>
<path d="M227.518 510.859C227.518 510.896 226.719 510.859 225.492 510.506C224.878 510.321 224.172 510.042 223.41 509.653C223.038 509.449 222.647 509.263 222.257 508.929C222.071 508.762 221.885 508.539 221.867 508.205C221.829 507.889 222.053 507.574 222.313 507.444C224.432 506.776 226.18 508.205 226.719 509.319C227.035 509.894 227.128 510.432 227.146 510.785C227.165 511.138 227.128 511.342 227.109 511.342C227.035 511.36 227.109 510.525 226.477 509.449C226.161 508.929 225.659 508.391 224.934 508.019C224.246 507.685 223.242 507.444 222.48 507.76C222.108 507.945 222.183 508.335 222.499 508.613C222.796 508.892 223.205 509.096 223.558 509.3C224.283 509.69 224.971 509.987 225.548 510.21C226.756 510.674 227.518 510.803 227.518 510.859Z" fill="#263238"/>
<path d="M226.979 510.878C226.942 510.896 226.737 510.321 226.979 509.43C227.109 508.985 227.37 508.483 227.779 508.038C228.206 507.648 228.782 507.11 229.638 507.296C230.102 507.444 230.233 508.001 230.102 508.335C230.009 508.688 229.786 508.966 229.601 509.189C229.21 509.634 228.801 509.987 228.429 510.247C227.686 510.766 227.146 510.915 227.128 510.859C227.109 510.803 227.593 510.562 228.262 510.024C228.597 509.746 228.968 509.393 229.322 508.947C229.675 508.576 229.991 507.834 229.508 507.648C229.006 507.518 228.411 507.927 228.02 508.279C227.63 508.669 227.37 509.096 227.221 509.504C226.942 510.302 227.035 510.878 226.979 510.878Z" fill="#263238"/>
<path d="M261.484 514.608C261.466 514.683 260.592 514.367 259.142 514.293C257.71 514.2 255.628 514.441 253.695 515.518C251.761 516.594 250.441 518.191 249.735 519.453C249.028 520.715 248.824 521.624 248.749 521.606C248.731 521.606 248.749 521.364 248.861 520.975C248.972 520.566 249.158 520.009 249.493 519.341C250.144 518.024 251.482 516.297 253.509 515.184C255.535 514.07 257.692 513.866 259.16 514.033C259.904 514.107 260.499 514.237 260.889 514.367C261.298 514.497 261.503 514.59 261.484 514.608Z" fill="#263238"/>
<path d="M260.48 500.948C260.592 500.966 260.201 503.88 259.644 507.463C259.067 511.045 258.528 513.94 258.417 513.922C258.305 513.903 258.696 510.989 259.253 507.407C259.83 503.825 260.369 500.929 260.48 500.948Z" fill="#263238"/>
<path d="M245.236 518.024C245.236 518.116 243.116 518.116 240.551 517.689C237.985 517.281 235.977 516.631 235.996 516.52C236.033 516.409 238.059 516.891 240.606 517.3C243.153 517.727 245.254 517.912 245.236 518.024Z" fill="#263238"/>
<path d="M251.426 519.081C251.482 519.174 251.185 519.49 250.887 519.917C250.59 520.344 250.404 520.752 250.292 520.733C250.2 520.715 250.218 520.214 250.553 519.713C250.906 519.193 251.371 518.989 251.426 519.081Z" fill="#263238"/>
<path d="M254.252 516.576C254.308 516.669 254.048 516.947 253.676 517.225C253.286 517.504 252.932 517.652 252.877 517.56C252.821 517.467 253.081 517.188 253.453 516.91C253.825 516.65 254.197 516.483 254.252 516.576Z" fill="#263238"/>
<path d="M257.822 515.833C257.785 515.945 257.357 515.852 256.874 515.945C256.372 516.019 256 516.223 255.944 516.13C255.87 516.056 256.204 515.648 256.818 515.555C257.413 515.462 257.878 515.741 257.822 515.833Z" fill="#263238"/>
<path d="M260.294 515.611C260.313 515.722 260.109 515.852 259.83 515.908C259.551 515.963 259.309 515.926 259.291 515.815C259.272 515.703 259.476 515.574 259.755 515.518C260.034 515.462 260.276 515.499 260.294 515.611Z" fill="#263238"/>
<path d="M262.525 222.763C262.525 222.763 160.925 239.746 168.938 270.334C176.857 300.624 236.944 374.254 236.944 374.254L274.963 350.237C274.963 350.237 218.78 280.616 220.937 278.315C223.094 276.013 300.024 259.402 300.024 259.402L317.183 215.506L262.525 222.763Z" fill="#455A64"/>
<path d="M288.516 253.277C288.572 253.536 289.222 253.629 289.985 253.499C290.747 253.351 291.323 253.035 291.267 252.775C291.212 252.516 290.561 252.423 289.799 252.553C289.055 252.683 288.479 252.998 288.516 253.277Z" fill="#263238"/>
<path d="M277.882 255.392C277.938 255.652 279.165 255.615 280.633 255.318C282.102 255.021 283.255 254.557 283.199 254.297C283.143 254.038 281.916 254.075 280.447 254.372C278.979 254.669 277.826 255.133 277.882 255.392Z" fill="#263238"/>
<path d="M267.266 257.694C267.322 257.954 268.568 257.898 270.018 257.583C271.486 257.267 272.62 256.785 272.565 256.525C272.509 256.265 271.282 256.32 269.813 256.636C268.344 256.952 267.21 257.434 267.266 257.694Z" fill="#263238"/>
<path d="M256.706 260.181C256.762 260.441 258.008 260.367 259.458 260.014C260.908 259.661 262.042 259.179 261.986 258.919C261.931 258.659 260.685 258.733 259.235 259.086C257.766 259.42 256.651 259.921 256.706 260.181Z" fill="#263238"/>
<path d="M246.184 262.854C246.258 263.114 247.485 263.021 248.935 262.65C250.385 262.278 251.501 261.759 251.445 261.499C251.371 261.239 250.144 261.332 248.694 261.703C247.244 262.074 246.128 262.594 246.184 262.854Z" fill="#263238"/>
<path d="M235.717 265.694C235.791 265.953 237.018 265.842 238.468 265.434C239.919 265.025 241.015 264.506 240.96 264.246C240.885 263.986 239.658 264.097 238.208 264.506C236.758 264.914 235.643 265.434 235.717 265.694Z" fill="#263238"/>
<path d="M225.287 268.719C225.362 268.979 226.589 268.83 228.02 268.422C229.452 267.995 230.567 267.438 230.493 267.197C230.419 266.937 229.192 267.086 227.76 267.494C226.328 267.921 225.213 268.478 225.287 268.719Z" fill="#263238"/>
<path d="M214.932 271.93C215.006 272.19 216.233 272.023 217.665 271.577C219.097 271.132 220.193 270.556 220.1 270.297C220.026 270.037 218.799 270.204 217.368 270.649C215.936 271.113 214.839 271.67 214.932 271.93Z" fill="#263238"/>
<path d="M212.236 279.837C212.478 279.67 211.809 278.593 211.195 277.368C210.526 276.143 210.898 275.085 210.6 274.937C210.47 274.881 210.284 275.141 210.08 275.679C209.894 276.217 209.968 277.034 210.322 277.776C211.047 279.243 212.051 279.967 212.236 279.837Z" fill="#263238"/>
<path d="M218.669 288.579C218.892 288.412 218.334 287.317 217.442 286.11C216.55 284.904 215.657 284.05 215.453 284.217C215.23 284.384 215.787 285.479 216.68 286.685C217.553 287.873 218.446 288.727 218.669 288.579Z" fill="#263238"/>
<path d="M225.101 297.302C225.325 297.135 224.767 296.04 223.874 294.834C222.982 293.627 222.09 292.773 221.885 292.94C221.662 293.107 222.22 294.202 223.112 295.409C223.986 296.615 224.878 297.451 225.101 297.302Z" fill="#263238"/>
<path d="M231.534 306.026C231.757 305.858 231.199 304.763 230.326 303.557C229.433 302.351 228.541 301.497 228.336 301.664C228.113 301.831 228.671 302.926 229.563 304.132C230.419 305.339 231.311 306.193 231.534 306.026Z" fill="#263238"/>
<path d="M237.967 314.749C238.19 314.582 237.632 313.487 236.758 312.28C235.866 311.074 234.973 310.22 234.769 310.387C234.546 310.554 235.104 311.649 235.996 312.856C236.851 314.062 237.743 314.916 237.967 314.749Z" fill="#263238"/>
<path d="M244.399 323.472C244.622 323.305 244.064 322.21 243.191 321.004C242.298 319.797 241.406 318.944 241.201 319.111C240.978 319.278 241.536 320.373 242.41 321.579C243.284 322.786 244.176 323.639 244.399 323.472Z" fill="#263238"/>
<path d="M250.832 332.196C251.055 332.029 250.497 330.934 249.623 329.727C248.731 328.521 247.838 327.667 247.634 327.834C247.411 328.001 247.969 329.096 248.861 330.303C249.716 331.509 250.608 332.363 250.832 332.196Z" fill="#263238"/>
<path d="M257.246 340.938C257.469 340.771 256.911 339.676 256.019 338.469C255.126 337.263 254.234 336.409 254.029 336.576C253.806 336.743 254.364 337.838 255.256 339.045C256.149 340.232 257.041 341.086 257.246 340.938Z" fill="#263238"/>
<path d="M262.116 347.545C262.339 347.378 262.135 346.766 261.689 346.135C261.224 345.522 260.685 345.132 260.48 345.3C260.257 345.467 260.462 346.079 260.908 346.71C261.373 347.323 261.912 347.694 262.116 347.545Z" fill="#263238"/>
<path d="M208.016 273.897C207.923 274.139 210.805 275.345 214.449 276.589C218.093 277.832 221.123 278.63 221.197 278.37C221.272 278.11 218.39 276.904 214.765 275.679C211.14 274.436 208.109 273.637 208.016 273.897Z" fill="#263238"/>
<path d="M206.733 277.368C206.696 277.628 210.005 278.389 214.17 278.723C218.334 279.076 221.718 278.871 221.718 278.612C221.718 278.333 218.371 278.111 214.244 277.758C210.117 277.424 206.771 277.108 206.733 277.368Z" fill="#263238"/>
<path d="M236.386 376.852L259.272 362.078C259.272 362.078 261.187 343.221 265.481 338.376L229.117 367.591L236.386 376.852Z" fill="#263238"/>
<path d="M370.187 219.663C370.187 219.663 376.415 239.523 356.299 269.498L288.59 374.087L273.252 509.913L223.056 505.458L240.049 354.951L311.383 221.52L370.187 219.663Z" fill="#455A64"/>
<path d="M364.888 223.376C365.149 223.394 365.372 222.763 365.372 221.984C365.372 221.204 365.149 220.573 364.888 220.61C364.628 220.629 364.405 221.26 364.405 222.002C364.405 222.745 364.628 223.376 364.888 223.376Z" fill="#263238"/>
<path d="M363.141 234.419C363.401 234.493 363.866 233.305 364.182 231.783C364.498 230.262 364.554 228.981 364.275 228.944C364.014 228.907 363.531 230.076 363.234 231.579C362.936 233.083 362.88 234.345 363.141 234.419Z" fill="#263238"/>
<path d="M359.553 244.999C359.794 245.11 360.445 244.015 361.003 242.549C361.56 241.101 361.802 239.839 361.542 239.764C361.282 239.672 360.631 240.767 360.092 242.214C359.553 243.662 359.311 244.906 359.553 244.999Z" fill="#263238"/>
<path d="M354.57 255.021C354.793 255.151 355.611 254.167 356.373 252.813C357.099 251.439 357.47 250.214 357.229 250.103C356.987 249.991 356.225 250.994 355.518 252.367C354.756 253.685 354.328 254.891 354.57 255.021Z" fill="#263238"/>
<path d="M348.658 264.524C348.881 264.673 349.736 263.726 350.573 262.427C351.41 261.128 351.893 259.94 351.67 259.81C351.447 259.661 350.592 260.608 349.755 261.907C348.918 263.206 348.435 264.376 348.658 264.524Z" fill="#263238"/>
<path d="M342.504 273.879C342.728 274.027 343.601 273.099 344.457 271.818C345.312 270.538 345.814 269.368 345.591 269.22C345.368 269.072 344.494 270 343.639 271.28C342.802 272.561 342.3 273.73 342.504 273.879Z" fill="#263238"/>
<path d="M336.276 283.196C336.5 283.345 337.373 282.417 338.247 281.136C339.102 279.855 339.623 278.686 339.418 278.537C339.195 278.389 338.322 279.317 337.448 280.598C336.574 281.878 336.053 283.048 336.276 283.196Z" fill="#263238"/>
<path d="M329.974 292.458C330.197 292.606 331.09 291.697 331.945 290.416C332.818 289.135 333.339 287.985 333.116 287.818C332.893 287.669 332.019 288.579 331.145 289.859C330.29 291.159 329.751 292.309 329.974 292.458Z" fill="#263238"/>
<path d="M323.653 301.719C323.876 301.868 324.769 300.958 325.642 299.678C326.516 298.397 327.037 297.246 326.832 297.098C326.609 296.949 325.717 297.859 324.843 299.14C323.969 300.42 323.43 301.571 323.653 301.719Z" fill="#263238"/>
<path d="M317.332 310.963C317.555 311.111 318.448 310.202 319.321 308.921C320.195 307.64 320.734 306.489 320.511 306.341C320.288 306.193 319.396 307.102 318.522 308.383C317.63 309.645 317.109 310.814 317.332 310.963Z" fill="#263238"/>
<path d="M310.993 320.187C311.216 320.336 312.108 319.426 312.982 318.145C313.856 316.865 314.395 315.714 314.172 315.566C313.949 315.417 313.056 316.327 312.182 317.607C311.29 318.888 310.769 320.039 310.993 320.187Z" fill="#263238"/>
<path d="M304.653 329.43C304.876 329.579 305.768 328.669 306.642 327.389C307.516 326.108 308.037 324.957 307.832 324.809C307.609 324.66 306.717 325.57 305.843 326.85C304.969 328.131 304.43 329.282 304.653 329.43Z" fill="#263238"/>
<path d="M298.351 338.692C298.574 338.84 299.466 337.931 300.321 336.65C301.195 335.37 301.716 334.219 301.492 334.07C301.269 333.922 300.396 334.831 299.522 336.112C298.648 337.393 298.127 338.543 298.351 338.692Z" fill="#263238"/>
<path d="M292.085 347.991C292.308 348.139 293.182 347.211 294.056 345.931C294.911 344.65 295.432 343.481 295.227 343.332C295.004 343.184 294.13 344.112 293.257 345.392C292.383 346.673 291.862 347.842 292.085 347.991Z" fill="#263238"/>
<path d="M285.913 357.327C286.136 357.475 287.01 356.547 287.847 355.248C288.702 353.949 289.204 352.779 288.981 352.631C288.758 352.482 287.884 353.41 287.047 354.71C286.192 356.027 285.69 357.197 285.913 357.327Z" fill="#263238"/>
<path d="M280.261 367.015C280.484 367.071 281.117 366.069 281.897 364.732C282.66 363.396 283.143 362.227 282.901 362.078C282.678 361.948 281.823 362.895 281.042 364.25C280.28 365.586 279.964 366.941 280.261 367.015Z" fill="#263238"/>
<path d="M278.923 378.114C279.183 378.152 279.536 376.927 279.722 375.386C279.889 373.846 279.815 372.583 279.555 372.546C279.295 372.509 278.941 373.734 278.755 375.275C278.57 376.815 278.644 378.077 278.923 378.114Z" fill="#263238"/>
<path d="M277.714 389.232C277.975 389.269 278.328 388.044 278.495 386.504C278.663 384.963 278.57 383.701 278.309 383.664C278.049 383.627 277.696 384.852 277.528 386.392C277.361 387.933 277.454 389.195 277.714 389.232Z" fill="#263238"/>
<path d="M276.543 400.35C276.803 400.369 277.157 399.162 277.324 397.622C277.491 396.081 277.398 394.819 277.138 394.782C276.878 394.763 276.525 395.97 276.357 397.51C276.19 399.051 276.283 400.331 276.543 400.35Z" fill="#263238"/>
<path d="M275.39 411.486C275.651 411.505 276.004 410.298 276.153 408.758C276.32 407.217 276.227 405.955 275.967 405.918C275.707 405.9 275.353 407.106 275.205 408.647C275.037 410.187 275.112 411.449 275.39 411.486Z" fill="#263238"/>
<path d="M274.238 422.623C274.498 422.641 274.851 421.416 275 419.894C275.167 418.354 275.074 417.092 274.814 417.054C274.554 417.036 274.201 418.261 274.052 419.783C273.885 421.323 273.959 422.585 274.238 422.623Z" fill="#263238"/>
<path d="M273.085 433.74C273.345 433.759 273.699 432.552 273.847 431.012C273.996 429.471 273.922 428.209 273.643 428.172C273.383 428.154 273.029 429.36 272.881 430.901C272.732 432.441 272.825 433.722 273.085 433.74Z" fill="#263238"/>
<path d="M271.951 444.895C272.211 444.914 272.565 443.689 272.713 442.167C272.862 440.626 272.788 439.364 272.509 439.327C272.249 439.308 271.895 440.533 271.747 442.074C271.598 443.596 271.691 444.858 271.951 444.895Z" fill="#263238"/>
<path d="M270.817 456.031C271.077 456.05 271.431 454.825 271.579 453.303C271.728 451.763 271.654 450.5 271.375 450.463C271.115 450.445 270.761 451.67 270.613 453.192C270.464 454.732 270.557 455.994 270.817 456.031Z" fill="#263238"/>
<path d="M269.702 467.168C269.962 467.186 270.315 465.961 270.464 464.439C270.613 462.899 270.538 461.637 270.259 461.6C269.999 461.581 269.646 462.806 269.497 464.328C269.348 465.869 269.423 467.131 269.702 467.168Z" fill="#263238"/>
<path d="M268.568 478.304C268.828 478.323 269.181 477.098 269.33 475.576C269.479 474.035 269.404 472.773 269.125 472.736C268.865 472.717 268.512 473.942 268.363 475.464C268.214 477.005 268.307 478.285 268.568 478.304Z" fill="#263238"/>
<path d="M267.452 489.459C267.712 489.477 268.066 488.252 268.214 486.712C268.363 485.171 268.27 483.909 268.01 483.872C267.75 483.854 267.396 485.079 267.248 486.619C267.099 488.16 267.192 489.422 267.452 489.459Z" fill="#263238"/>
<path d="M266.337 500.595C266.597 500.614 266.95 499.389 267.099 497.867C267.248 496.326 267.155 495.064 266.894 495.027C266.634 495.008 266.281 496.233 266.132 497.755C265.983 499.296 266.076 500.577 266.337 500.595Z" fill="#263238"/>
<path d="M265.5 508.966C265.76 508.985 266.039 508.391 266.114 507.63C266.188 506.869 266.039 506.219 265.779 506.201C265.519 506.182 265.24 506.776 265.165 507.537C265.072 508.298 265.24 508.929 265.5 508.966Z" fill="#263238"/>
<path d="M238.245 370.969C238.413 370.987 238.673 368.259 239.417 363.916C240.142 359.591 241.48 353.633 243.953 347.397C246.388 341.16 249.53 335.926 251.835 332.159C254.159 328.409 255.628 326.108 255.517 326.034C255.461 325.997 255.033 326.516 254.29 327.519C253.546 328.502 252.505 329.95 251.278 331.806C248.824 335.481 245.552 340.715 243.079 347.044C240.569 353.355 239.342 359.424 238.766 363.804C238.487 366.013 238.32 367.795 238.283 369.02C238.171 370.263 238.171 370.95 238.245 370.969Z" fill="#263238"/>
<path d="M276.023 502.544L274.517 511.416L221.532 505.365L223.056 494.786L276.023 502.544Z" fill="#263238"/>
<path d="M304.411 215.747C304.318 215.747 304.374 217.028 304.523 219.255C304.672 221.482 304.932 224.656 305.285 228.461L305.304 228.294C304.132 231.895 302.273 236.015 300.117 240.321C296.9 246.688 293.796 252.404 291.769 256.617C290.747 258.733 289.947 260.459 289.445 261.666C288.943 262.872 288.702 263.559 288.758 263.596C288.813 263.615 289.185 262.984 289.78 261.833C290.487 260.497 291.36 258.845 292.364 256.933C294.558 252.794 297.737 247.152 300.972 240.748C303.147 236.424 304.969 232.229 306.084 228.535L306.103 228.443V228.368C305.675 224.563 305.304 221.408 305.006 219.199C304.709 216.991 304.504 215.747 304.411 215.747Z" fill="#263238"/>
<path d="M239.696 194.978C239.956 190.969 249.958 187.647 254.011 186.459L253.936 186.385L255.219 186.106C255.498 186.032 255.684 185.976 255.684 185.976L255.702 185.995L332.577 169.624L341.147 139.686H368.922C368.235 141.078 362.546 190.375 347.617 193.846C332.688 197.317 268.846 202.514 268.846 202.514C268.846 202.514 266.801 202.736 264.087 202.996C264.087 203.033 264.106 203.07 264.106 203.126C264.106 205.725 261.336 205.984 258.361 206.114C250.98 206.411 248.842 203.237 248.842 203.237C246.593 201.623 244.752 198.245 244.752 198.245C244.752 198.245 243.079 203.293 242.391 206.3C241.406 210.587 239.696 210.068 239.696 210.068C239.696 210.068 239.51 197.836 239.696 194.978Z" fill="#FFBE9D"/>
<path d="M252.616 204.091C252.635 204.351 255.238 204.351 258.417 204.091C261.596 203.831 264.161 203.386 264.124 203.126C264.106 202.866 261.503 202.866 258.324 203.126C255.145 203.386 252.579 203.831 252.616 204.091Z" fill="#EB996E"/>
<path d="M250.423 200.658C250.423 200.583 250.144 200.491 249.698 200.565C249.27 200.639 248.601 200.955 248.285 201.641C247.95 202.328 248.192 203.108 248.545 203.423C248.898 203.776 249.233 203.757 249.233 203.683C249.27 203.609 249.047 203.479 248.861 203.163C248.675 202.866 248.582 202.365 248.805 201.883C249.289 200.899 250.46 200.825 250.423 200.658Z" fill="#EB996E"/>
<path d="M247.429 197.094C247.467 196.927 246.221 196.983 245.682 198.245C245.217 199.525 246.091 200.416 246.184 200.268C246.314 200.194 245.868 199.377 246.221 198.449C246.574 197.539 247.467 197.242 247.429 197.094Z" fill="#EB996E"/>
<path d="M252.616 186.886L245.143 173.559C244.064 173.337 243.488 173.633 243.209 174.246L250.385 187.628L252.616 186.886Z" fill="#455A64"/>
<path d="M261.131 203.126L264.124 208.713V211.608L261.131 209.585L257.747 203.609L261.131 203.126Z" fill="#455A64"/>
<path d="M355.407 27.5252C355.444 27.5623 355.927 27.0983 356.466 26.0589C357.006 25.0196 357.545 23.3305 357.47 21.1961C357.396 19.0616 356.597 16.5745 355.053 14.2359C353.51 11.9158 351.205 9.65146 348.138 8.44503C345.089 7.2386 341.686 7.34996 339.121 8.68631C336.555 9.98555 334.919 12.2685 334.436 14.3658C333.934 16.4817 334.38 18.2635 334.882 19.3215C335.384 20.398 335.905 20.8434 335.942 20.8063C336.016 20.7506 335.607 20.2495 335.235 19.173C334.863 18.1336 334.566 16.4446 335.105 14.5329C335.607 12.6397 337.169 10.6166 339.53 9.48442C341.854 8.3151 344.977 8.2223 347.784 9.33593C350.629 10.4496 352.823 12.5469 354.31 14.737C355.834 16.9272 356.634 19.2472 356.801 21.2518C356.968 23.2563 356.559 24.8711 356.15 25.929C355.723 26.9498 355.351 27.4881 355.407 27.5252Z" fill="#263238"/>
<path d="M304.616 84.7287C304.467 77.2117 304.207 69.3049 304.207 69.3049C304.207 69.3049 295.116 68.0613 293.052 55.4959C291.081 43.5058 292.494 15.6094 292.494 15.6094C305.452 9.3916 320.957 12.5654 330.439 23.3491L330.625 84.4503C330.643 91.5404 324.954 97.3498 317.853 97.4612C310.658 97.5911 304.746 91.893 304.616 84.7287Z" fill="#FFBE9D"/>
<path d="M295.543 36.0073C295.525 36.8611 296.194 37.5664 297.031 37.585C297.867 37.6036 298.555 36.9168 298.574 36.063C298.592 35.2092 297.923 34.5039 297.086 34.4854C296.25 34.4668 295.562 35.1536 295.543 36.0073Z" fill="#263238"/>
<path d="M293.052 34.2998C293.238 34.504 294.372 33.5574 296.008 33.4831C297.644 33.3903 298.852 34.2441 299.02 34.0214C299.113 33.9286 298.908 33.5574 298.388 33.1676C297.867 32.7778 296.993 32.4252 295.971 32.4809C294.948 32.5365 294.112 32.9634 293.628 33.3903C293.126 33.8172 292.959 34.207 293.052 34.2998Z" fill="#263238"/>
<path d="M313.279 36.0073C313.261 36.8611 313.93 37.5664 314.767 37.585C315.603 37.6036 316.291 36.9168 316.31 36.063C316.328 35.2092 315.659 34.5039 314.822 34.4854C313.986 34.4668 313.298 35.1536 313.279 36.0073Z" fill="#263238"/>
<path d="M311.123 34.6153C311.309 34.8195 312.443 33.8729 314.079 33.7986C315.715 33.7058 316.923 34.5596 317.09 34.3369C317.183 34.2441 316.979 33.8729 316.458 33.4831C315.938 33.0933 315.064 32.7407 314.041 32.7964C313.019 32.8521 312.182 33.2789 311.699 33.7058C311.197 34.1327 311.03 34.5225 311.123 34.6153Z" fill="#263238"/>
<path d="M305.006 48.6099C305.006 48.5171 304.002 48.3686 302.348 48.2016C301.939 48.1645 301.53 48.1088 301.455 47.7933C301.344 47.4777 301.511 46.9952 301.716 46.4569C302.087 45.3618 302.478 44.2111 302.887 43.0232C304.523 38.1232 305.694 34.1142 305.508 34.0399C305.322 33.9842 303.854 37.9005 302.218 42.7819C301.827 43.9883 301.455 45.1391 301.083 46.2342C300.935 46.7539 300.674 47.3292 300.898 47.9974C301.009 48.3315 301.325 48.5542 301.585 48.6285C301.846 48.7027 302.087 48.7027 302.292 48.7027C303.965 48.7398 304.988 48.7027 305.006 48.6099Z" fill="#263238"/>
<path d="M304.188 69.2863C304.188 69.2863 312.145 69.509 319.953 64.1265C319.953 64.1265 316.254 72.9613 304.393 72.256L304.188 69.2863Z" fill="#EB996E"/>
<path d="M305.582 52.8788C305.768 51.858 306.512 50.9485 307.479 50.5588C308.148 50.2804 308.947 50.2618 309.58 50.5959C310.212 50.93 310.658 51.6724 310.546 52.3777C310.416 53.1758 309.654 53.7697 308.855 53.9368C308.055 54.1038 307.237 53.9553 306.438 53.7697C306.215 53.7141 305.991 53.6769 305.806 53.547C305.62 53.4171 305.49 53.1944 305.545 52.9716" fill="#EB996E"/>
<path d="M309.635 48.5542C309.375 48.5542 309.394 50.4474 307.906 51.8395C306.419 53.2501 304.523 53.1201 304.504 53.38C304.486 53.4913 304.932 53.7326 305.731 53.7141C306.512 53.7141 307.646 53.3985 308.557 52.5448C309.468 51.691 309.858 50.5588 309.896 49.7978C309.951 48.9997 309.747 48.5357 309.635 48.5542Z" fill="#263238"/>
<path d="M323.374 14.6442C319.303 21.9571 308.111 29.8082 299.987 31.8684C300.898 30.365 305.806 26.5601 306.698 25.0567C303.091 28.4347 297.942 32.9634 293.015 33.4646C292.439 33.5203 291.806 33.5574 291.305 33.2418C290.635 32.815 290.468 31.9241 290.375 31.1445C289.947 27.8222 289.947 22.087 290.301 18.7647C290.654 15.4423 291.844 12.0829 294.261 9.74426C297.309 6.79314 301.809 5.88367 306.047 5.56814C309.617 5.3083 313.298 5.38254 316.607 6.71889C319.916 8.05525 322.798 10.8764 323.393 14.3844" fill="#263238"/>
<path d="M320.66 16.1476C320.66 16.1476 317.053 30.4763 326.237 39.868C326.237 39.868 327.464 53.3243 333.86 59.6534C333.86 59.6534 337.187 43.246 337.299 36.9168C337.411 30.5877 340.255 7.29428 319.34 10.0227L320.66 16.1476Z" fill="#263238"/>
<path d="M335.012 26.3373C333.32 22.6252 334.176 17.9851 336.834 14.8855C339.493 11.7859 343.787 10.2825 347.859 10.6723C351.93 11.062 355.723 13.2707 358.344 16.3889C360.389 18.8203 361.783 21.9199 361.672 25.0938C361.523 29.3627 358.53 33.2975 354.607 35.0236C350.685 36.7683 346.037 36.4528 342.133 34.7081C338.229 32.9449 335.031 29.8453 332.688 26.2631" fill="#263238"/>
<path d="M349.458 16.2219L355.481 4.39884V2.22726L353.455 3.30377L347.301 15.2011L349.458 16.2219Z" fill="#E1215B"/>
<path d="M345.2 15.1454C345.256 14.9783 345.2 1.09506 345.2 1.09506C345.2 1.09506 344.921 -0.0185738 343.862 0.0927892C342.802 0.204152 342.746 1.15074 342.746 1.15074V15.4238L345.2 15.1454Z" fill="#E1215B"/>
<path opacity="0.3" d="M345.2 15.1454C345.256 14.9783 345.2 1.09506 345.2 1.09506C345.2 1.09506 344.921 -0.0185738 343.862 0.0927892C342.802 0.204152 342.746 1.15074 342.746 1.15074V15.4238L345.2 15.1454Z" fill="black"/>
<path d="M344.568 15.2196L344.605 1.02084H343.694V15.3124L344.568 15.2196Z" fill="#E1215B"/>
<path d="M345.2 1.07651L342.746 1.13219C342.746 1.13219 342.858 0 343.862 0C344.735 0 345.033 0.575375 345.2 1.07651Z" fill="#455A64"/>
<path d="M355.481 4.39884C355.481 4.39884 355.072 4.62156 354.719 4.47308C354.384 4.32459 354.366 3.86058 354.366 3.86058C354.366 3.86058 353.734 4.04619 353.492 3.86058C353.25 3.67498 353.436 3.30377 353.436 3.30377L354.868 2.54279L355.481 2.87687V4.39884Z" fill="#455A64"/>
<path d="M336.964 19.6556C336.927 19.637 336.481 20.3794 336.072 21.8457C335.7 23.312 335.366 25.5949 335.942 28.3048C336.481 30.996 338.136 34.1328 341.11 36.36C344.01 38.6058 348.361 39.8123 352.525 38.643C354.589 38.1047 356.485 37.0653 357.991 35.7104C359.497 34.3555 360.575 32.6665 361.226 30.9404C362.564 27.4695 362.174 23.8874 360.965 21.4003C359.776 18.876 358.158 17.2798 357.043 16.259C355.89 15.2567 355.165 14.8298 355.128 14.867C355.072 14.9226 355.741 15.4609 356.782 16.5374C357.805 17.6139 359.292 19.2472 360.333 21.6787C361.393 24.073 361.691 27.3953 360.389 30.6248C359.162 33.8544 356.169 36.7312 352.265 37.7149C348.379 38.7914 344.382 37.7149 341.631 35.6362C338.805 33.5759 337.206 30.6991 336.611 28.1377C335.979 25.5578 336.184 23.3677 336.444 21.92C336.741 20.4722 337.057 19.6927 336.964 19.6556Z" fill="#263238"/>
<path d="M308.855 25.7434C308.724 25.762 309.189 26.9313 310.9 27.3953C311.718 27.618 312.796 27.5995 313.837 27.1911C314.878 26.8014 315.882 26.1146 316.812 25.3165C318.689 23.6832 319.898 21.7529 320.53 20.2866C321.18 18.8203 321.311 17.8181 321.199 17.7809C320.939 17.651 319.749 21.493 316.179 24.5741C314.469 26.1517 312.498 27.0055 311.048 26.7086C309.561 26.5044 308.966 25.632 308.855 25.7434Z" fill="#263238"/>
<path d="M325.958 39.7009C327.223 39.4225 328.543 39.4225 329.77 39.8308C330.978 40.2577 332.075 41.1115 332.614 42.2808C333.172 43.4501 333.153 44.8236 332.744 46.0486C332.335 47.2736 331.573 48.3501 330.68 49.2781C330.048 49.9463 329.305 50.5588 328.431 50.8558C327.557 51.1527 326.516 51.097 325.791 50.5217" fill="#FFBE9D"/>
<path d="M326.869 47.3107C326.721 47.3664 327.297 48.1088 328.45 47.7747C329.007 47.6077 329.528 47.1065 329.844 46.494C330.16 45.863 330.346 45.1762 330.42 44.3781C330.476 43.5986 330.272 42.7634 329.825 42.1694C329.398 41.5755 328.71 41.2414 328.134 41.2414C326.944 41.2414 326.609 42.0766 326.739 42.0952C326.832 42.188 327.278 41.7611 328.059 41.9096C328.803 42.021 329.565 43.0232 329.435 44.3039C329.323 45.6031 328.859 46.8096 328.189 47.1251C327.464 47.5149 326.944 47.1993 326.869 47.3107Z" fill="#EB996E"/>
<path d="M330.978 49.7607C330.848 49.8535 331.517 50.5588 331.554 51.8766C331.573 52.5262 331.331 53.2686 330.755 53.8626C330.197 54.4565 329.305 54.8091 328.394 54.5679C327.483 54.3637 326.869 53.6398 326.683 52.8417C326.498 52.0436 326.683 51.2641 326.999 50.6887C327.65 49.538 328.505 49.0925 328.412 48.9626C328.394 48.8698 327.371 49.0554 326.423 50.3175C325.958 50.9486 325.624 51.9323 325.828 53.0088C325.977 54.0853 326.907 55.2175 328.171 55.4959C329.416 55.83 330.736 55.2917 331.424 54.4565C332.149 53.6398 332.354 52.6004 332.242 51.8209C331.982 50.2061 331.015 49.6493 330.978 49.7607Z" fill="#E1215B"/>
<path d="M338.47 29.9566C338.693 30.068 339.809 27.321 339.084 23.8502C338.396 20.3794 336.295 18.2821 336.128 18.4677C335.886 18.6347 337.503 20.8434 338.117 24.0358C338.805 27.2282 338.191 29.8824 338.47 29.9566Z" fill="#263238"/>
<path d="M307.776 215.487L305.694 213.371H254.234L252.616 215.747L307.776 215.487Z" fill="#455A64"/>
<path d="M494.022 220.369L428.581 520.733H420.922L487.218 220.369H494.022Z" fill="#263238"/>
<path d="M426.871 220.369L494.022 520.733H487.441L420.922 220.369H426.871Z" fill="#263238"/>
<path d="M481.399 480.865H434.252V474.778H479.372L481.399 480.865Z" fill="#263238"/>
<path d="M105.04 220.369L39.5991 521.606H31.9582L98.2541 220.369H105.04Z" fill="#263238"/>
<path d="M37.9073 220.369L105.04 521.606H98.4773L31.9582 220.369H37.9073Z" fill="#263238"/>
<path d="M92.4351 481.626H45.2694V475.501H90.4087L92.4351 481.626Z" fill="#263238"/>
<path d="M100.095 137.199L126.922 215.487H248.433L247.522 211.46L198.405 209.938L175.761 137.162L100.095 137.199Z" fill="#263238"/>
<path d="M153.935 173.968C154.734 177.179 153.358 180.315 150.867 180.983C148.376 181.652 145.699 179.591 144.881 176.38C144.081 173.169 145.457 170.033 147.948 169.365C150.458 168.715 153.135 170.775 153.935 173.968Z" fill="white"/>
<path d="M148.618 190.783L146.108 197.298L121.251 185.364L123.612 178.849L148.618 190.783Z" fill="white"/>
<path d="M146.665 191.377L145.029 194.978L123.073 184.751L124.282 180.278L146.665 191.377Z" fill="#455A64"/>
<path d="M122.739 154.776C122.739 159.138 126.271 162.664 130.64 162.664C135.009 162.664 138.541 159.138 138.541 154.776C138.541 150.414 135.009 146.888 130.64 146.888C126.29 146.906 122.739 150.433 122.739 154.776Z" fill="white"/>
<path d="M132.016 148.465C134.804 149.152 136.868 151.973 136.775 154.832C136.682 157.69 134.544 160.344 131.793 161.142C130.547 161.513 129.134 161.513 127.963 160.938C126.773 160.363 125.918 159.249 125.323 158.061C124.523 156.465 124.114 154.609 124.523 152.883C124.97 150.99 126.383 149.356 128.204 148.67C130.026 147.983 132.183 148.243 133.763 149.356" fill="#E1215B"/>
<path d="M176.43 188.166L168.845 184.825L163.583 188.946L167.413 198.226L177.155 194.328L176.43 188.166Z" fill="white"/>
<path d="M175.761 188.872L169.068 185.753L164.755 189.373L167.934 197.075L176.207 193.939L175.761 188.872Z" fill="#E1215B"/>
<path d="M0 215.487H531V220.61H0V215.487Z" fill="#263238"/>
<path d="M66.0915 178.626C71.8733 172.594 75.3871 164.465 75.8332 156.131C76.0378 152.14 75.4428 147.797 72.7099 144.865C69.2148 141.097 62.5406 140.986 58.9153 144.605C55.2157 148.317 55.1785 154.275 56.108 159.416C57.5024 167.063 61.3694 172.724 65.7383 179.164" fill="#E1215B"/>
<path d="M57.5953 178.552C56.1824 172.501 52.52 166.989 47.4818 163.332C45.0649 161.569 42.1089 160.196 39.1716 160.697C35.3976 161.346 32.6089 165.467 33.4083 169.197C34.2263 173.002 37.9445 175.452 41.5326 176.974C46.8868 179.22 51.9994 179.109 57.7998 178.997" fill="#E1215B"/>
<path d="M66.0915 195.442C66.3518 195.442 66.4076 187.647 66.2216 178.032C66.0171 168.418 65.6453 160.623 65.385 160.641C65.1248 160.641 65.069 168.437 65.2549 178.051C65.4408 187.647 65.8312 195.442 66.0915 195.442Z" fill="#263238"/>
<path d="M40.5844 168.214C40.51 168.325 41.8486 169.327 44.0795 170.831C46.3105 172.334 49.4524 174.302 53.0033 176.362C56.5542 178.422 59.8448 180.148 62.2617 181.355C64.6785 182.542 66.203 183.192 66.2774 183.081C66.3331 182.951 64.9202 182.097 62.5963 180.761C59.9564 179.239 56.8889 177.475 53.5053 175.545C50.1403 173.578 47.0913 171.796 44.4514 170.274C42.1089 168.919 40.6588 168.102 40.5844 168.214Z" fill="#263238"/>
<path d="M82.7863 192.584L47.5375 194.347L51.0326 215.729H79.2912L82.7863 192.584Z" fill="#455A64"/>
<path d="M65.6639 188.185C65.7382 188.426 69.0847 187.721 72.9702 186.106C76.8557 184.491 79.7188 182.617 79.5886 182.394C79.4585 182.153 76.4281 183.638 72.5984 185.215C68.7686 186.811 65.5895 187.925 65.6639 188.185Z" fill="#263238"/>
</svg>
