<svg width="150" height="138" viewBox="0 0 150 138" fill="none" xmlns="http://www.w3.org/2000/svg">
<path d="M149.303 130.179L117.775 78.9352C116.912 77.5342 115.416 76.6978 113.771 76.6978C112.126 76.6978 110.629 77.5345 109.767 78.9352L105.674 85.5882C105.037 86.6232 105.36 87.9788 106.395 88.6157C107.431 89.2523 108.786 88.9298 109.423 87.8947L113.516 81.2414C113.538 81.2063 113.604 81.099 113.771 81.099C113.938 81.099 114.005 81.2063 114.026 81.2414L145.555 132.485C145.58 132.526 145.647 132.634 145.562 132.788C145.476 132.941 145.348 132.941 145.3 132.941H127.839L79.0034 53.5702C78.5648 52.8571 77.9613 52.2914 77.2579 51.9067C77.2588 51.907 77.2597 51.9076 77.2602 51.9079V36.9724C79.0916 37.4689 80.8755 37.6811 82.6207 37.6811C87.6398 37.6811 92.3399 35.9364 96.9381 34.2296C103.31 31.8645 109.328 29.6306 115.837 32.2409C116.676 32.5775 117.625 32.4762 118.374 31.9693C119.124 31.4619 119.572 30.6185 119.572 29.7132V4.85273C119.572 3.75702 118.922 2.77236 117.917 2.34462C109.654 -1.17891 102.411 1.50937 95.4061 4.10917C88.8442 6.54492 82.6465 8.8456 75.8979 5.82949C75.2168 5.52509 74.4284 5.58661 73.8026 5.99208C73.1768 6.39784 72.7992 7.09277 72.7992 7.83867V7.9204C72.7614 8.08417 72.7397 8.2538 72.7397 8.429V51.9079C72.0375 52.2926 71.4346 52.858 70.9963 53.5702L47.811 91.2527L40.2325 78.9354C39.3706 77.5345 37.8738 76.6981 36.2288 76.6981C34.5841 76.6981 33.0873 77.5345 32.2254 78.9354L0.696389 130.179C-0.195115 131.627 -0.233201 133.45 0.596487 134.935C1.42617 136.42 2.99854 137.343 4.69981 137.343H145.3C147.001 137.343 148.574 136.42 149.403 134.935C150.233 133.45 150.195 131.627 149.303 130.179ZM77.2008 10.9632C84.3249 12.9173 90.7236 10.5422 96.9381 8.23535C103.086 5.95312 108.911 3.7916 115.171 5.99648V27.3788C108.025 25.4194 101.62 27.7972 95.4064 30.1034C89.2687 32.3815 83.4495 34.5416 77.2008 32.3435V10.9632ZM27.3287 132.941L34.8788 120.67C35.5157 119.635 35.1929 118.279 34.1578 117.642C33.1225 117.006 31.7672 117.328 31.1303 118.363L22.161 132.941H4.7001C4.65205 132.941 4.52432 132.941 4.43877 132.788C4.35322 132.635 4.41973 132.526 4.44522 132.485L35.9742 81.242C35.9959 81.2068 36.0618 81.0996 36.2291 81.0996C36.3964 81.0996 36.4623 81.2068 36.484 81.242L45.2273 95.4522L36.4972 109.641C35.8603 110.676 36.1831 112.032 37.2182 112.668C38.2538 113.305 39.6091 112.983 40.2457 111.947L74.7451 55.8765C74.7668 55.8413 74.8327 55.7341 75 55.7341C75.167 55.7341 75.2329 55.8413 75.2549 55.8765L122.671 132.941H27.3287Z" fill="#E1215B"/>
</svg>
