<svg width="61" height="93" viewBox="0 0 61 93" fill="none" xmlns="http://www.w3.org/2000/svg">
<g clip-path="url(#clip0)">
<path fill-rule="evenodd" clip-rule="evenodd" d="M2.86133 36.3773C1.99828 37.414 1.8054 37.1376 0.673796 37.6478C0.606656 39.0016 0.883149 39.2859 1.33604 40.1132C0.606656 40.5643 -0.0549741 40.7987 0.00362044 41.8683C0.0786947 43.2806 -0.164229 42.0856 0.439418 42.7875L1.4868 43.5984C1.2103 50.0427 2.39196 49.4741 8.30818 49.4492C14.8696 49.4242 14.0651 49.5496 16.9735 53.5364C18.8174 56.0603 20.3256 58.4594 21.8924 61.3845L26.0153 69.9601C30.5491 68.297 39.0459 66.0233 40.4375 59.0444C37.5377 57.1141 33.3311 50.7866 31.4543 47.3934C30.6413 50.0013 29.8618 52.3079 27.1048 53.428C23.9371 54.7149 21.1044 52.191 20.0991 50.0762C18.4566 46.6495 18.3394 37.6563 27.1213 38.3247C25.7303 36.8868 21.448 31.0117 18.9925 28.4707C11.5931 30.9867 12.2633 32.2152 10.4615 35.0818C10.0843 35.6839 10.4951 35.2492 10.0172 35.6084L8.31611 30.8613C13.4865 30.5606 12.7992 29.8502 15.9334 28.5127C17.2744 27.9441 17.5423 28.0361 18.2546 27.4176L14.2574 22.4866C12.7827 20.681 11.6011 19.1183 10.0422 17.4887C5.44986 22.1609 8.48335 22.9882 6.21281 24.0249C4.23525 21.5424 9.14559 17.5222 9.22128 16.6364C9.44772 14.0285 6.34709 17.5891 5.0397 21.4505C3.59803 25.6796 6.45574 27.6854 3.67372 30.4023C0.623136 33.3779 -0.801445 32.3662 2.21557 35.5512C2.63427 35.9944 2.52563 35.7521 2.84424 36.37L2.86133 36.3785V36.3773Z" fill="#210D15"/>
<path fill-rule="evenodd" clip-rule="evenodd" d="M32.3274 43.2812C34.2464 43.1643 34.037 43.0554 35.2938 41.9608C36.0982 41.2589 36.8105 40.7323 37.615 40.1388C40.4641 38.016 40.397 37.9156 38.2265 35.4836C33.2826 29.9506 26.6791 23.6152 21.7682 18.1407L13.5387 9.47314C11.3097 7.19151 10.6474 8.72071 8.76202 10.3339C6.3572 12.3897 8.15044 13.5768 9.65864 15.4158C16.2456 23.4143 26.5442 35.7009 32.3183 43.2897L32.3268 43.2812H32.3274Z" fill="#FF1493"/>
<path fill-rule="evenodd" clip-rule="evenodd" d="M32.3274 43.2812C34.2464 43.1643 34.037 43.0554 35.2938 41.9608C36.0982 41.2589 36.8105 40.7323 37.615 40.1388C40.4641 38.016 40.397 37.9156 38.2265 35.4836C33.2826 29.9506 26.6791 23.6152 21.7682 18.1407L13.5387 9.47314C11.3097 7.19151 10.6474 8.72071 8.76202 10.3339C6.3572 12.3897 8.15044 13.5768 9.65864 15.4158C16.2456 23.4143 26.5442 35.7009 32.3183 43.2897L32.3268 43.2812H32.3274Z" fill="#B70569"/>
<path d="M13.6552 9.1383L8.0069 14.1027L7.48749 13.5177L12.5407 9.06282L12.2135 8.6866L12.8086 8.16855L13.6552 9.12126L13.6466 9.12978L13.6552 9.1383Z" fill="#FEFEFE"/>
<path d="M11.685 12.5565C11.0399 13.133 10.6377 13.7935 10.4869 14.5459C10.3361 15.2813 10.4784 15.8913 10.8977 16.3679C11.3249 16.8446 11.9115 17.0619 12.6659 17.0035C13.4368 16.945 14.1405 16.6273 14.7863 16.0593C15.44 15.4907 15.8422 14.8308 15.993 14.0784C16.1437 13.343 16.0015 12.733 15.5743 12.2564C15.1555 11.7797 14.5684 11.5709 13.8146 11.6208C13.0437 11.6793 12.34 11.9885 11.6863 12.5571L11.685 12.5565ZM11.1821 11.9879C11.9866 11.286 12.8667 10.9098 13.8305 10.8593C14.8107 10.8094 15.5822 11.1016 16.1517 11.745C16.7217 12.3885 16.9225 13.1908 16.7468 14.1521C16.5789 15.0962 16.0931 15.9242 15.2886 16.6261C14.4927 17.3365 13.6126 17.7127 12.6488 17.7547C11.6765 17.8131 10.8971 17.5124 10.3276 16.869C9.75752 16.2255 9.56526 15.4231 9.7325 14.4704C9.90035 13.5263 10.3862 12.6983 11.1821 11.9879Z" fill="#FEFEFE"/>
<path d="M16.1622 17.5629C15.5171 18.1394 15.1148 18.7999 14.9641 19.5524C14.8133 20.2877 14.9555 20.8977 15.3748 21.3744C15.8021 21.851 16.3887 22.0684 17.1431 22.0099C17.9139 21.9515 18.6177 21.6337 19.2635 21.0657C19.9171 20.4972 20.3194 19.8373 20.4701 19.0848C20.6209 18.3495 20.4787 17.7395 20.0514 17.2628C19.6327 16.7862 19.0456 16.5774 18.2918 16.6273C17.5209 16.6857 16.8171 16.995 16.1634 17.5635L16.1622 17.5629ZM15.6593 16.9944C16.4637 16.2925 17.3439 15.9162 18.3076 15.8657C19.2879 15.8158 20.0594 16.108 20.6288 16.7515C21.1989 17.3949 21.3997 18.1973 21.2239 19.1585C21.0561 20.1027 20.5702 20.9306 19.7658 21.6325C18.9699 22.3429 18.0897 22.7191 17.126 22.7611C16.1537 22.8196 15.3742 22.5188 14.8048 21.8754C14.2347 21.2319 14.0424 20.4296 14.2097 19.4769C14.3775 18.5327 14.8634 17.7048 15.6593 16.9944Z" fill="#FEFEFE"/>
<path d="M20.6261 22.5614C19.9809 23.1379 19.5787 23.7984 19.4279 24.5509C19.2772 25.2863 19.4194 25.8962 19.8387 26.3729C20.266 26.8495 20.8525 27.0669 21.6069 27.0084C22.3778 26.95 23.0816 26.6322 23.7273 26.0642C24.381 25.4957 24.7832 24.8358 24.934 24.0833C25.0848 23.348 24.9425 22.738 24.5153 22.2613C24.0966 21.7847 23.5094 21.5759 22.7556 21.6258C21.9847 21.6842 21.281 21.9935 20.6273 22.5621L20.6261 22.5614ZM20.1231 21.9929C20.9276 21.291 21.8077 20.9148 22.7715 20.8642C23.7517 20.8143 24.5232 21.1065 25.0927 21.75C25.6628 22.3934 25.8636 23.1958 25.6878 24.157C25.5199 25.1012 25.0341 25.9291 24.2296 26.631C23.4337 27.3414 22.5536 27.7176 21.5898 27.7596C20.6175 27.8181 19.8381 27.5174 19.2686 26.8739C18.6986 26.2304 18.5063 25.4281 18.6735 24.4754C18.8414 23.5312 19.3272 22.7033 20.1231 21.9929Z" fill="#FEFEFE"/>
<path d="M28.2701 25.478L22.6224 30.451L22.1024 29.858L27.1641 25.4117L26.829 25.0355L27.4241 24.5089L28.2701 25.4616L28.2622 25.4701L28.2701 25.478Z" fill="#FEFEFE"/>
<path d="M29.4669 26.824L23.8187 31.7884L23.2993 31.2034L28.361 26.7485L28.0253 26.3723L28.6204 25.8542L29.4669 26.807L29.4584 26.8155L29.4669 26.824Z" fill="#FEFEFE"/>
<path d="M27.5001 30.2422C26.855 30.8187 26.4527 31.4792 26.302 32.2316C26.1512 32.967 26.2934 33.577 26.7127 34.0536C27.14 34.5303 27.7265 34.7476 28.481 34.6892C29.2518 34.6307 29.9556 34.3129 30.6013 33.745C31.255 33.1764 31.6573 32.5165 31.808 31.7641C31.9588 31.0287 31.8166 30.4187 31.3893 29.9421C30.9706 29.4654 30.3834 29.2566 29.6296 29.3065C28.8588 29.3649 28.155 29.6742 27.5013 30.2428L27.5001 30.2422ZM26.9972 29.6736C27.8016 28.9717 28.6818 28.5955 29.6455 28.5449C30.6258 28.495 31.3973 28.7872 31.9667 29.4307C32.5368 30.0742 32.7376 30.8765 32.5618 31.8377C32.394 32.7819 31.9081 33.6098 31.1037 34.3117C30.3078 35.0221 29.4276 35.3984 28.4639 35.4404C27.4916 35.4988 26.7121 35.1981 26.1427 34.5546C25.5726 33.9112 25.3803 33.1088 25.5476 32.1561C25.7154 31.2119 26.2013 30.384 26.9972 29.6736Z" fill="#FEFEFE"/>
<path d="M31.9746 35.2486C31.3294 35.8251 30.9272 36.4856 30.7765 37.238C30.6257 37.9734 30.7679 38.5834 31.1872 39.06C31.6145 39.5367 32.201 39.754 32.9554 39.6956C33.7263 39.6372 34.4301 39.3194 35.0752 38.7514C35.7289 38.1828 36.1311 37.5229 36.2819 36.7705C36.4327 36.0351 36.2904 35.4251 35.8632 34.9485C35.4445 34.4718 34.8573 34.263 34.1035 34.3129C33.3326 34.3714 32.6289 34.6806 31.9752 35.2492L31.9746 35.2486ZM31.4717 34.68C32.2761 33.9781 33.1556 33.6019 34.1194 33.5514C35.0996 33.5015 35.8711 33.7937 36.4406 34.4371C37.0107 35.0806 37.2115 35.8829 37.0357 36.8442C36.8678 37.7884 36.382 38.6163 35.5775 39.3182C34.7816 40.0286 33.9015 40.4048 32.9377 40.4468C31.9654 40.5052 31.186 40.2045 30.6165 39.5611C30.0465 38.9176 29.8542 38.1153 30.0214 37.1625C30.1893 36.2184 30.6751 35.3904 31.471 34.68H31.4717Z" fill="#FEFEFE"/>
<path d="M39.6081 38.1658L33.9598 43.1387L33.4404 42.5452L38.5015 38.0903L38.1664 37.7147L38.7615 37.196L39.6081 38.1493L39.5995 38.1572L39.6081 38.1658Z" fill="#FEFEFE"/>
<path fill-rule="evenodd" clip-rule="evenodd" d="M14.1755 8.8376L31.9163 27.6434C33.5923 29.4234 37.0195 32.3242 37.8746 34.0956C38.7798 33.5691 41.5954 30.8108 42.5005 29.8666C44.2602 28.036 46.1963 27.1753 46.297 24.4925L22.5314 8.06874C19.8501 6.24672 18.6098 4.02353 14.1682 8.8376H14.1768H14.1755Z" fill="#FF1493"/>
<path fill-rule="evenodd" clip-rule="evenodd" d="M14.1755 8.8376L31.9163 27.6434C33.5923 29.4234 37.0195 32.3242 37.8746 34.0956C38.7798 33.5691 41.5954 30.8108 42.5005 29.8666C44.2602 28.036 46.1963 27.1753 46.297 24.4925L22.5314 8.06874C19.8501 6.24672 18.6098 4.02353 14.1682 8.8376H14.1768H14.1755Z" fill="#B70569"/>
<path d="M31.3612 14.3286L25.7629 20.6725L25.0928 20.0875L30.1209 14.4041L29.6931 14.0358L30.2802 13.3674L31.3612 14.3116L31.3526 14.3201L31.3612 14.3286Z" fill="#FEFEFE"/>
<path d="M29.6515 18.4322C29.0143 19.1676 28.6541 19.9614 28.5955 20.8228C28.5369 21.6672 28.7713 22.3271 29.3164 22.7952C29.8608 23.2719 30.5395 23.4308 31.3776 23.2634C32.2241 23.088 32.97 22.6363 33.6066 21.9095C34.2518 21.182 34.6125 20.3882 34.679 19.5274C34.7376 18.6831 34.5032 18.0232 33.9582 17.5465C33.4217 17.0698 32.735 16.9195 31.9049 17.0869C31.0583 17.2622 30.3125 17.7054 29.6588 18.4322H29.6509H29.6515ZM29.0063 17.8637C29.8022 16.9694 30.7324 16.4258 31.8054 16.234C32.8864 16.0416 33.7915 16.259 34.5203 16.8945C35.2497 17.538 35.5848 18.3988 35.5176 19.4939C35.4676 20.572 35.0397 21.5582 34.2438 22.4525C33.4558 23.3553 32.5263 23.8983 31.4618 24.0907C30.3808 24.2916 29.4757 24.0657 28.7469 23.4302C28.0261 22.7946 27.691 21.9259 27.7496 20.8308C27.7996 19.7526 28.2275 18.7579 29.0149 17.8637H29.0063Z" fill="#FEFEFE"/>
<path d="M35.3321 23.3973C34.6949 24.1327 34.3348 24.9265 34.2762 25.7879C34.2176 26.6322 34.452 27.2921 34.9885 27.7603C35.5329 28.2369 36.2117 28.3873 37.0497 28.2284C37.8963 28.0531 38.6421 27.6014 39.2787 26.8745C39.9239 26.1471 40.2846 25.3532 40.3511 24.4925C40.4097 23.6481 40.1753 22.9882 39.6303 22.5116C39.0938 22.0349 38.4071 21.8845 37.577 22.0519C36.7305 22.2273 35.9846 22.6704 35.3309 23.3973H35.3321ZM34.687 22.8287C35.4829 21.9345 36.4131 21.3908 37.4861 21.1991C38.567 21.0067 39.4722 21.224 40.201 21.8596C40.9304 22.503 41.2654 23.3638 41.1983 24.459C41.1483 25.5371 40.7204 26.5233 39.9245 27.4176C39.1365 28.3203 38.2063 28.8634 37.1425 29.0557C36.0615 29.2566 35.1563 29.0308 34.4276 28.3952C33.7067 27.7597 33.3717 26.891 33.4303 25.7958C33.4803 24.7177 33.9082 23.723 34.6955 22.8287H34.687Z" fill="#FEFEFE"/>
<path d="M44.2653 25.5949L38.6591 31.9309L37.9975 31.3459L43.0165 25.6619L42.5892 25.2942L43.1843 24.6258L44.2653 25.5699L44.2567 25.587L44.2653 25.5949Z" fill="#FEFEFE"/>
<path fill-rule="evenodd" clip-rule="evenodd" d="M21.4803 6.08724C21.874 6.60529 32.349 13.9688 33.3714 14.479C35.056 15.3233 44.5086 17.0114 47.6679 17.7888C49.0167 18.123 48.9502 17.8722 49.386 18.8255C47.6178 19.5359 39.1539 16.5269 36.3548 16.5189L46.4447 23.4728C47.7435 23.9744 50.0983 24.4839 51.5565 24.3506C52.2687 22.9797 53.6598 15.4323 54.0455 13.1172C54.5899 9.83232 51.9172 10.5342 44.3164 9.0385L26.7935 5.84556C24.5474 5.44439 22.637 4.4582 21.4724 6.08785H21.481L21.4803 6.08724Z" fill="#FF1493"/>
<path fill-rule="evenodd" clip-rule="evenodd" d="M21.4803 6.08724C21.874 6.60529 32.349 13.9688 33.3714 14.479C35.056 15.3233 44.5086 17.0114 47.6679 17.7888C49.0167 18.123 48.9502 17.8722 49.386 18.8255C47.6178 19.5359 39.1539 16.5269 36.3548 16.5189L46.4447 23.4728C47.7435 23.9744 50.0983 24.4839 51.5565 24.3506C52.2687 22.9797 53.6598 15.4323 54.0455 13.1172C54.5899 9.83232 51.9172 10.5342 44.3164 9.0385L26.7935 5.84556C24.5474 5.44439 22.637 4.4582 21.4724 6.08785H21.481L21.4803 6.08724Z" fill="#B70569"/>
<path d="M29.9863 9.76471C29.8105 10.5756 29.8856 11.3195 30.1957 11.9879C30.5057 12.6399 30.958 13.0325 31.5531 13.1579C32.1568 13.2919 32.7348 13.1159 33.2878 12.6484C33.8493 12.1638 34.2179 11.5198 34.3858 10.7095C34.5616 9.89864 34.4944 9.15474 34.1844 8.48632C33.8743 7.83434 33.422 7.44169 32.8184 7.30776C32.2147 7.18236 31.6453 7.34977 31.0923 7.81729C30.5308 8.30187 30.1621 8.94593 29.9863 9.75619V9.76471ZM29.2655 9.61435C29.4834 8.61111 29.9527 7.82582 30.6736 7.2408C31.3944 6.64726 32.1653 6.42993 32.9698 6.60525C33.7828 6.78058 34.3943 7.29072 34.8051 8.12654C35.2159 8.95385 35.316 9.86516 35.0901 10.8678C34.8808 11.871 34.4114 12.6648 33.6991 13.2499C32.9783 13.8434 32.2074 14.0607 31.403 13.8854C30.5985 13.7101 29.9869 13.1999 29.5676 12.3641C29.1568 11.5368 29.0567 10.6255 29.2661 9.62287V9.61435H29.2655Z" fill="#FEFEFE"/>
<path d="M37.5617 7.69251L36.0365 14.7547L35.2906 14.5958L36.6566 8.269L36.1872 8.16856L36.3465 7.42465L37.5532 7.68398L37.5447 7.69251H37.5617Z" fill="#FEFEFE"/>
<path d="M37.9972 11.4699C37.8214 12.2807 37.8965 13.0246 38.2065 13.693C38.5166 14.345 38.9689 14.7377 39.564 14.8631C40.1676 14.997 40.7456 14.8211 41.2986 14.3535C41.8601 13.869 42.2288 13.2249 42.3967 12.4146C42.5724 11.6038 42.5053 10.8599 42.1952 10.1915C41.8852 9.53948 41.4329 9.14683 40.8292 9.0129C40.2256 8.8875 39.6561 9.05491 39.1032 9.52243C38.5416 10.007 38.173 10.6511 37.9972 11.4613V11.4699ZM37.2763 11.3195C37.4942 10.3163 37.9636 9.53095 38.6844 8.94594C39.4053 8.3524 40.1762 8.13507 40.9806 8.31039C41.7936 8.48571 42.4052 8.99586 42.816 9.83168C43.2267 10.659 43.3268 11.5703 43.101 12.5729C42.8917 13.5762 42.4223 14.37 41.71 14.955C40.9892 15.5485 40.2183 15.7659 39.4138 15.5905C38.6094 15.4152 37.9978 14.9051 37.5785 14.0693C37.1677 13.242 37.0676 12.3306 37.277 11.328V11.3195H37.2763Z" fill="#FEFEFE"/>
<path d="M44.3179 12.8158C44.1421 13.6267 44.2172 14.3706 44.5272 15.039C44.8373 15.691 45.2896 16.0836 45.8847 16.209C46.4883 16.343 47.0663 16.167 47.6193 15.6995C48.1808 15.2149 48.5495 14.5709 48.7173 13.7606C48.8931 12.9497 48.826 12.2058 48.5159 11.5374C48.2059 10.8854 47.7536 10.4928 47.1499 10.3588C46.5463 10.2334 45.9768 10.4009 45.4238 10.8684C44.8623 11.353 44.4936 11.997 44.3179 12.8073V12.8158ZM43.597 12.6654C43.8149 11.6622 44.2843 10.8769 45.0051 10.2919C45.726 9.69834 46.4968 9.48102 47.3013 9.65634C48.1143 9.83166 48.7259 10.3418 49.1367 11.1776C49.5474 12.0049 49.6475 12.9162 49.4217 13.9189C49.2123 14.9221 48.743 15.7159 48.0307 16.3009C47.3098 16.8945 46.539 17.1118 45.7345 16.9365C44.9301 16.7612 44.3185 16.251 43.8992 15.4152C43.4884 14.5879 43.3883 13.6766 43.5976 12.674V12.6654H43.597Z" fill="#FEFEFE"/>
<path d="M51.8927 10.7515L50.3674 17.8138L49.6221 17.647L50.9961 11.3195L50.5188 11.2197L50.6774 10.4758L51.8847 10.7345V10.743L51.8927 10.7515Z" fill="#FEFEFE"/>
<path d="M53.585 11.1107L52.0597 18.1735L51.3224 18.0146L52.6884 11.6793L52.2105 11.5788L52.3698 10.8349L53.5764 11.0942V11.1107H53.585Z" fill="#FEFEFE"/>
<path fill-rule="evenodd" clip-rule="evenodd" d="M25.4362 4.36565L25.947 4.64142C26.3242 4.79178 26.3328 4.81674 26.7515 4.93423L51.6737 9.41409C51.3636 7.75096 49.8298 4.22381 49.1175 2.23438C48.028 -0.79115 47.6929 -0.0642917 42.1203 0.537771C39.1119 0.864066 36.137 1.24819 33.0785 1.54101C31.4781 1.69137 30.0114 1.83382 28.4361 2.00062C26.157 2.25143 25.8634 2.22647 25.4526 4.35774L25.4362 4.36626V4.36565Z" fill="#FF1493"/>
<path fill-rule="evenodd" clip-rule="evenodd" d="M25.4362 4.36565L25.947 4.64142C26.3242 4.79178 26.3328 4.81674 26.7515 4.93423L51.6737 9.41409C51.3636 7.75096 49.8298 4.22381 49.1175 2.23438C48.028 -0.79115 47.6929 -0.0642917 42.1203 0.537771C39.1119 0.864066 36.137 1.24819 33.0785 1.54101C31.4781 1.69137 30.0114 1.83382 28.4361 2.00062C26.157 2.25143 25.8634 2.22647 25.4526 4.35774L25.4362 4.36626V4.36565Z" fill="#B70569"/>
<path d="M28.5956 2.78592C28.487 3.5213 28.5956 4.1818 28.9143 4.7583C29.2243 5.32688 29.6601 5.64404 30.1966 5.72805C30.7411 5.80293 31.2525 5.61969 31.7134 5.16799C32.1827 4.69986 32.4757 4.10632 32.5764 3.37093C32.6851 2.63555 32.585 1.97505 32.2663 1.39855C31.9563 0.829973 31.5205 0.504287 30.976 0.428801C30.4316 0.353923 29.9287 0.53716 29.4678 0.988859C28.9985 1.457 28.7055 2.05054 28.5963 2.78592H28.5956ZM27.9419 2.69399C28.0762 1.7912 28.4528 1.0473 29.0565 0.487242C29.668 -0.0892535 30.3388 -0.323626 31.0761 -0.214658C31.8135 -0.106299 32.3921 0.311919 32.8022 1.03878C33.221 1.75772 33.3638 2.56798 33.221 3.47077C33.0867 4.38208 32.718 5.11747 32.115 5.67752C31.5034 6.25402 30.8326 6.48839 30.0953 6.37942C29.3659 6.27106 28.7879 5.85285 28.3692 5.12599C27.9505 4.41557 27.8077 3.59678 27.9419 2.69399Z" fill="#FEFEFE"/>
<path d="M35.2333 0.470816L34.2946 6.87314L33.6238 6.77269L34.4624 1.0394L34.0345 0.980957L34.1353 0.304016L35.2247 0.462294V0.470816H35.2333Z" fill="#FEFEFE"/>
<path d="M36.7662 0.696654L35.8275 7.09045L35.1573 6.99853L35.9953 1.25671L35.5681 1.19827L35.6688 0.521332L36.7576 0.679609V0.688132L36.7662 0.696654Z" fill="#FEFEFE"/>
<path d="M37.3866 4.03998C37.278 4.77536 37.3866 5.43586 37.7052 6.01236C38.0153 6.58094 38.4511 6.8981 38.9876 6.98211C39.532 7.05699 40.0435 6.87375 40.5043 6.42205C40.9737 5.95392 41.2667 5.36038 41.3674 4.62499C41.476 3.88961 41.3759 3.22911 41.0573 2.65261C40.7472 2.08403 40.3114 1.75835 39.767 1.68286C39.2226 1.60798 38.7196 1.79122 38.2588 2.24292C37.7894 2.71105 37.4965 3.3046 37.3872 4.03998H37.3866ZM36.7329 3.94805C36.8672 3.04526 37.2438 2.30136 37.8474 1.7413C38.459 1.16481 39.1298 0.930433 39.8671 1.0394C40.6044 1.14776 41.183 1.56598 41.5932 2.29284C42.0119 3.01178 42.1547 3.82204 42.0119 4.72483C41.8776 5.63614 41.509 6.37153 40.9059 6.93158C40.2944 7.50808 39.6236 7.74245 38.8863 7.63348C38.1569 7.52512 37.5789 7.10691 37.1602 6.38005C36.7414 5.66963 36.5986 4.85084 36.7329 3.94805Z" fill="#FEFEFE"/>
<path d="M44.0237 1.72487L43.0849 8.1272L42.4147 8.03527L43.2528 2.29285L42.8255 2.23441L42.9262 1.55746L44.0151 1.71635V1.72487H44.0237Z" fill="#FEFEFE"/>
<path d="M44.6341 5.07608C44.5254 5.81146 44.6341 6.47196 44.9527 7.04846C45.2628 7.61704 45.6986 7.9342 46.2351 8.01821C46.7795 8.09309 47.291 7.90985 47.7518 7.45815C48.2212 6.99002 48.5142 6.39648 48.6149 5.6611C48.7235 4.92571 48.6234 4.26521 48.3048 3.68872C47.9947 3.12013 47.5589 2.79445 47.0145 2.71896C46.4701 2.64408 45.9671 2.82732 45.5063 3.27902C45.0369 3.74716 44.744 4.3407 44.6347 5.07608H44.6341ZM43.9804 4.98416C44.1147 4.08137 44.4913 3.33746 45.0949 2.7774C45.7065 2.20091 46.3773 1.96654 47.1146 2.0755C47.8519 2.18386 48.4305 2.60208 48.8407 3.32894C49.2594 4.04788 49.4022 4.85814 49.2594 5.76093C49.1251 6.67225 48.7565 7.40763 48.1534 7.96769C47.5419 8.54418 46.8711 8.77855 46.1337 8.66959C45.4044 8.56123 44.8264 8.14301 44.4077 7.41615C43.9889 6.70573 43.8461 5.88695 43.9804 4.98416Z" fill="#FEFEFE"/>
<path d="M51.2797 2.76095L50.3409 9.16327L49.6622 9.07134L50.5088 3.32953L50.0815 3.27109L50.1816 2.59354L51.2711 2.75242V2.76095H51.2797Z" fill="#FEFEFE"/>
<path fill-rule="evenodd" clip-rule="evenodd" d="M28.5803 41.1079C29.8877 50.6776 21.6753 50.0427 21.8761 43.2562C21.9182 41.7855 22.1947 41.8604 21.6497 41.0081C19.0599 47.394 21.2053 52.6841 25.5547 52.5508C28.9154 52.4424 31.0602 48.0709 30.1471 44.1846C29.8199 42.7972 29.6106 42.2621 28.7811 41.3094C28.739 41.2595 28.6468 41.1676 28.5797 41.1006V41.1091L28.5803 41.1079Z" fill="#210D15"/>
<path fill-rule="evenodd" clip-rule="evenodd" d="M24.9674 39.4028C21.2631 41.1244 23.3584 48.3376 25.9061 47.1006C28.7052 45.7382 27.7665 38.1074 24.9674 39.4028Z" fill="#210D15"/>
<path fill-rule="evenodd" clip-rule="evenodd" d="M1.86414 33.6105C3.64883 33.8527 4.37821 32.3485 4.94767 30.8272C3.52309 31.3958 4.36112 31.2619 3.13735 32.2316C2.30787 32.8836 2.24073 32.4155 1.86353 33.6105H1.86414Z" fill="#EEEEF0"/>
<path fill-rule="evenodd" clip-rule="evenodd" d="M1.31793 37.8145C1.86237 38.5164 0.479909 37.7811 2.04731 38.8257C2.53316 39.152 2.90182 39.2019 3.49692 39.4107C3.07821 38.0234 3.12826 37.9229 1.31793 37.8145Z" fill="#EEEEF0"/>
<path fill-rule="evenodd" clip-rule="evenodd" d="M1.00901 41.0075C1.47837 41.3837 -0.247726 41.9437 1.98131 41.3167C3.02075 41.0239 2.16564 41.2832 2.49218 40.5893L1.00901 41.0154V41.0069V41.0075Z" fill="#EEEEF0"/>
<path d="M20.1589 5.77006L15.5079 11.0273L14.955 10.5421L19.12 5.8285L18.7679 5.51925L19.2623 4.96771L20.1589 5.75301L20.1503 5.76153L20.1589 5.77006Z" fill="#FEFEFE"/>
<path d="M18.7329 9.17182C18.2049 9.7818 17.912 10.4423 17.8528 11.1527C17.8027 11.8546 18.0035 12.3982 18.4479 12.7909C18.9001 13.1835 19.4617 13.3175 20.1575 13.1756C20.8612 13.0338 21.4813 12.6576 22.0093 12.047C22.5458 11.4449 22.8388 10.785 22.8974 10.0746C22.9474 9.37271 22.7466 8.82909 22.3023 8.43644C21.8579 8.04379 21.2885 7.91838 20.5927 8.0517C19.8889 8.19354 19.2688 8.56975 18.7323 9.17182H18.7329ZM18.1964 8.70368C18.8586 7.95978 19.6295 7.50869 20.5176 7.3498C21.4142 7.19091 22.1686 7.36624 22.7637 7.90134C23.3674 8.43644 23.6439 9.15477 23.5932 10.0576C23.5511 10.9518 23.1995 11.7712 22.5373 12.5151C21.8836 13.259 21.1127 13.7186 20.2246 13.869C19.328 14.0364 18.5736 13.8526 17.9706 13.3175C17.3669 12.7909 17.0904 12.0719 17.1411 11.1612C17.1832 10.267 17.5348 9.43967 18.197 8.69577V8.70429L18.1964 8.70368Z" fill="#FEFEFE"/>
<path d="M23.4501 13.2919C22.9222 13.9019 22.6292 14.5624 22.57 15.2728C22.5199 15.9747 22.7207 16.5183 23.1651 16.911C23.6174 17.3036 24.1789 17.4376 24.8747 17.2957C25.5784 17.1539 26.1986 16.7777 26.7265 16.1671C27.263 15.565 27.556 14.9051 27.6146 14.1947C27.6647 13.4928 27.4638 12.9492 27.0195 12.5565C26.5752 12.1639 26.0057 12.0385 25.3099 12.1718C24.6061 12.3136 23.986 12.6898 23.4495 13.2919H23.4501ZM22.9136 12.8238C23.5759 12.0799 24.3467 11.6288 25.2348 11.4699C26.1314 11.311 26.8858 11.4863 27.4809 12.0214C28.0846 12.5565 28.3611 13.2749 28.3104 14.1776C28.2683 15.0719 27.9167 15.8913 27.2545 16.6352C26.6008 17.3791 25.8299 17.8387 24.9418 17.9891C24.0452 18.1565 23.2908 17.9727 22.6878 17.4376C22.0841 16.911 21.8076 16.192 21.8583 15.2813C21.9004 14.3871 22.252 13.5598 22.9142 12.8159V12.8244L22.9136 12.8238Z" fill="#FEFEFE"/>
<path d="M29.592 71.0297C29.8428 70.9566 29.8239 71.1344 29.5663 71.9081C30.2707 71.7054 31.0178 71.4759 31.8076 71.2068C31.8613 70.5341 31.7343 70.0514 31.434 69.7848C31.1582 69.5394 30.7437 69.5218 30.0772 69.7976C29.4186 70.0703 28.9712 70.3345 28.6026 70.676C28.2333 71.0175 27.9062 71.4503 27.5467 72.036C27.0156 72.901 27.2738 73.2523 27.6968 73.4824C28.1918 73.7514 28.8473 73.8732 28.6502 74.457C28.53 74.8113 28.3945 75.0396 28.0343 75.0773C27.5882 75.1242 27.7786 74.664 28.0087 74.11C27.3001 74.1867 26.6629 74.2348 26.0958 74.2616C25.7308 74.8466 25.4806 75.3659 25.5935 75.739C25.7107 76.1274 26.2899 76.3929 27.5772 76.2942C29.1763 76.1719 30.1804 75.7926 30.7541 75.3549C31.3394 74.9087 31.4615 74.4083 31.5097 73.8592C31.594 72.9059 30.7468 72.7281 30.0156 72.5601C29.3771 72.4134 28.8266 72.2734 29.0494 71.7243C29.249 71.2336 29.3735 71.0942 29.5926 71.0303L29.592 71.0297ZM35.5662 66.9711C35.7682 67.3607 35.9696 67.7521 36.1717 68.1423C36.3731 68.5319 36.5751 68.9228 36.7747 69.3136C36.2443 69.6508 35.6992 69.9723 35.1493 70.2809C35.0224 69.8572 34.896 69.4353 34.7691 69.0129C34.6421 68.5904 34.5158 68.1673 34.3888 67.7448C33.7919 68.0875 33.2016 68.4278 32.6175 68.7237C32.6371 69.8103 32.6548 70.8939 32.6731 71.9806C32.6914 73.066 32.7097 74.1508 32.7286 75.2374C33.8877 74.8661 35.0578 74.4046 36.2254 73.8835C36.1051 73.4824 35.9837 73.0818 35.8647 72.6806C35.7456 72.2801 35.6266 71.8759 35.5064 71.4765C36.1289 71.1423 36.7448 70.791 37.3417 70.4167C37.5352 70.7862 37.7262 71.1575 37.9173 71.5289C38.1083 71.9002 38.2994 72.2697 38.4904 72.6392C39.5421 71.9593 40.5193 71.2312 41.436 70.4934C40.7274 69.6928 40.0169 68.8942 39.3083 68.0924C38.6015 67.2925 37.8917 66.4914 37.183 65.6915C36.6661 66.1292 36.1228 66.5553 35.5644 66.9705L35.5662 66.9711ZM40.023 64.4922C40.4204 63.9255 40.7701 63.366 41.0576 62.8108C40.6456 62.6197 40.233 62.4285 39.8192 62.2374C39.6025 62.7359 39.3352 63.2388 38.9885 63.7191C38.6265 64.2207 38.1901 64.6968 37.7281 65.1765C38.5032 65.9216 39.2814 66.6624 40.0572 67.4076C40.8312 68.1509 41.6094 68.8966 42.3845 69.6399C43.1786 68.8576 43.9238 68.107 44.5653 67.3321C45.1659 66.6064 45.6689 65.8619 46.1816 65.1789C45.7696 64.9877 45.3551 64.7966 44.9431 64.6054C44.4689 65.2799 43.958 65.9825 43.4063 66.7148C43.0028 66.45 42.6012 66.1852 42.1977 65.9204C42.556 65.44 42.8893 64.9701 43.2048 64.5093C42.8075 64.3096 42.4126 64.1069 42.0177 63.906C41.7406 64.3339 41.4421 64.7698 41.118 65.2105C40.753 64.9713 40.3905 64.7302 40.023 64.4922Z" fill="#210D15"/>
<path d="M23.9666 81.1509C23.7188 81.14 23.6132 81.0669 23.6675 80.8039C23.7225 80.5391 23.941 80.0783 24.3524 79.279C24.7546 78.4986 25.0048 78.0335 25.2044 77.7656C25.4065 77.4953 25.5517 77.421 25.7415 77.4223C26.0858 77.4241 25.9955 77.7948 25.7672 78.3153C26.2817 78.3117 26.8188 78.3086 27.3913 78.266C27.5812 77.6615 27.5793 77.1727 27.4011 76.8379C27.2217 76.5006 26.8927 76.293 26.3269 76.2967C25.6353 76.3015 25.1483 76.5103 24.6545 76.9712C24.1674 77.4259 23.6633 78.1357 23.0114 79.1828C22.3388 80.2633 21.9408 80.9853 21.9598 81.4699C21.9793 81.9587 22.4505 82.2162 23.532 82.2796C24.3994 82.3301 25.1257 82.1188 25.6738 81.7536C26.2219 81.3883 26.5741 80.8618 26.7639 80.2573C26.1145 80.2895 25.4968 80.2895 24.9054 80.2865C24.6704 80.8246 24.4165 81.1704 23.966 81.1509H23.9666ZM27.771 79.5901C28.3563 79.8445 28.9777 80.113 29.6686 80.3072C30.3937 80.5111 31.1799 80.6523 32.0032 80.7838C32.0002 80.4082 32.0002 80.0326 31.9971 79.6564C31.0163 79.5127 30.1032 79.3319 29.2572 79.1164C30.1831 78.6227 31.0968 78.0931 31.991 77.5574C31.991 77.1818 31.991 76.8044 31.991 76.4282C31.3477 76.8738 30.691 77.3309 30.0098 77.7553C29.3372 78.1747 28.6365 78.546 27.9449 78.9198C27.8906 79.1438 27.829 79.3672 27.7716 79.5894L27.771 79.5901ZM35.1936 74.6214C35.0007 75.7062 34.7761 76.794 34.4508 77.8612C34.1169 78.9582 33.6756 80.0539 33.2062 81.1351C33.8978 80.9646 34.5893 80.7443 35.287 80.5184C35.6568 79.422 35.9986 78.3311 36.2226 77.2153C36.4393 76.1341 36.5571 75.0566 36.6407 73.9858C36.1586 74.2129 35.6758 74.418 35.1936 74.6214ZM42.4782 73.5025C41.6677 73.6662 40.8773 73.8269 40.0856 73.9517C39.308 74.0741 38.5322 74.1617 37.7699 74.2202C37.9243 74.5568 38.0788 74.8929 38.2332 75.2277C39.2592 75.0877 40.2913 74.8947 41.3271 74.6676C40.6551 75.4974 39.9086 76.3107 39.0981 77.11C39.2525 77.4466 39.4069 77.7826 39.5613 78.1175C40.2303 77.4393 40.873 76.78 41.4363 76.0763C41.9796 75.3981 42.4556 74.6999 42.9091 74.0254C42.7675 73.8513 42.6198 73.6784 42.4782 73.5025ZM47.3825 69.8408C46.2502 69.0859 45.4556 68.6744 44.7872 68.6196C44.128 68.5654 43.5897 68.8808 42.8737 69.5863C42.4123 70.0404 41.9027 70.4727 41.3845 70.9219C42.0662 71.6646 42.7443 72.4085 43.4237 73.1524C44.1018 73.8957 44.7842 74.6384 45.4623 75.3811C46.2216 74.8296 46.987 74.3109 47.6785 73.7429C48.7472 72.8651 49.1861 72.2082 49.0842 71.6147C48.9834 71.0297 48.3255 70.4684 47.1933 69.7135C47.2573 69.7543 47.3184 69.7969 47.3831 69.8402L47.3825 69.8408ZM45.9127 70.939C46.7391 71.5861 47.1304 71.9586 47.1926 72.2679C47.2555 72.5784 46.9931 72.8316 46.5011 73.248C46.0024 72.8006 45.5013 72.3525 45.0027 71.9057C44.5016 71.4576 44.0023 71.009 43.5042 70.5597C43.8869 70.1975 44.1177 70.0064 44.4564 70.063C44.8031 70.1208 45.2602 70.4234 46.0836 71.0741C46.0293 71.0279 45.9713 70.9834 45.9133 70.939H45.9127ZM46.8649 67.0843C47.167 66.6917 47.4533 66.3021 47.7267 65.9161C47.2799 65.7091 46.8325 65.5028 46.3858 65.2958C45.9225 66.0129 45.3982 66.741 44.8129 67.4855C45.7839 68.0967 46.7556 68.7067 47.7267 69.3166C48.6978 69.9266 49.6725 70.5378 50.6467 71.146C51.5567 70.22 52.435 69.3337 53.2773 68.4832C52.8305 68.2763 52.3801 68.0699 51.9333 67.8629C51.5378 68.2897 51.1325 68.7237 50.7175 69.1663C50.2579 68.9185 49.8007 68.6695 49.3381 68.4218C49.6048 68.118 49.8685 67.8191 50.123 67.5232C49.6854 67.3132 49.2514 67.1032 48.8138 66.8913C48.5885 67.1781 48.3505 67.4666 48.1094 67.7588C47.698 67.5336 47.2799 67.3096 46.8649 67.0843Z" fill="#210D15"/>
<path d="M28.6593 90.2409C28.735 89.7028 28.8058 89.1659 28.8833 88.6302C28.9609 88.0914 29.0347 87.5557 29.1104 87.0169C29.6927 86.9628 30.2884 86.8952 30.8975 86.799C30.9439 86.2803 30.9897 85.7678 31.0324 85.2491C30.4495 85.3514 29.8837 85.4147 29.3277 85.4713C29.4034 84.935 29.479 84.3926 29.5517 83.8538C30.2957 83.7686 31.0623 83.6511 31.8527 83.4941C31.8826 82.9772 31.9187 82.4585 31.9516 81.9423C30.5331 82.2169 29.1867 82.3782 27.8964 82.5353C27.6364 83.8319 27.3715 85.1267 27.1096 86.4191C26.8484 87.7109 26.5866 89.0064 26.3229 90.2988C27.0767 90.3055 27.8567 90.286 28.6599 90.2397L28.6593 90.2409ZM36.1344 85.797C36.7039 85.9668 36.912 86.4575 37.02 86.9847C37.1293 87.5186 37.1317 88.0938 37.3063 88.4299C38.3134 88.0591 39.3339 87.6647 40.3612 87.2422C40.0712 86.911 39.9626 86.2152 39.7258 85.601C39.489 84.9861 39.1166 84.4437 38.3335 84.378C39.0641 83.7783 39.1905 83.0527 39.0117 82.1986C38.8481 81.4164 38.4776 80.9519 37.8135 80.7997C37.1708 80.6517 36.2418 80.8155 34.9137 81.2118C34.1813 81.4304 33.4555 81.6258 32.7414 81.7786C32.6987 83.1014 32.6511 84.4248 32.6065 85.7495C32.562 87.0723 32.5174 88.3976 32.4747 89.7204C33.4031 89.5287 34.3442 89.2931 35.3086 89.0532C35.2854 88.5583 35.2592 88.0677 35.236 87.5734C35.2128 87.0827 35.1835 86.5902 35.1603 86.0977C35.4825 85.9973 35.8085 85.8993 36.1344 85.797ZM34.9857 82.626C36.1344 82.2771 36.4079 82.5304 36.5 83.393C36.5922 84.2544 36.3517 84.5502 35.1011 84.9338C35.0846 84.5478 35.0645 84.1625 35.0449 83.7808C35.0254 83.3973 35.0052 83.0113 34.9857 82.6253V82.626ZM39.6171 79.4348C39.9363 80.6444 40.2525 81.8565 40.5717 83.0637C40.891 84.2733 41.2071 85.4829 41.5227 86.6949C42.5597 86.2024 43.5802 85.6332 44.5971 85.0537C44.1558 83.9226 43.7114 82.7909 43.2671 81.6623C42.8227 80.533 42.3814 79.4001 41.9371 78.2684C41.1699 78.6891 40.3935 79.0708 39.6165 79.4348H39.6171ZM49.212 80.3151C48.8 80.6438 48.5198 80.7698 48.2214 80.6091C47.9241 80.4496 47.6006 79.9998 47.0922 79.1901C46.5935 78.3957 46.3274 77.9002 46.2694 77.5404C46.2121 77.183 46.3689 76.9572 46.7205 76.7015C47.3302 76.2577 47.7111 76.5012 48.0798 76.9827C48.8732 76.3155 49.6429 75.6575 50.3936 74.997C49.9133 74.5325 49.3255 74.3212 48.6163 74.3888C47.9131 74.4558 47.0855 74.821 46.0656 75.5418C44.6892 76.5146 43.9635 77.2451 43.7255 78.0767C43.4831 78.921 43.7224 79.8464 44.2784 81.0888C44.854 82.3745 45.3667 83.141 46.217 83.2402C47.0843 83.3412 48.3215 82.7775 50.1306 81.2745C51.4355 80.1903 52.1173 79.1816 52.3688 78.3799C52.6105 77.6098 52.4347 76.9961 51.9537 76.5317C51.1474 77.2792 50.321 78.0353 49.4653 78.7962C49.8474 79.2887 49.9286 79.7441 49.212 80.3151ZM50.841 71.7212C51.3843 72.6106 51.9214 73.5414 52.4078 74.5282C52.9059 75.54 53.3429 76.6187 53.7775 77.7388C54.4788 76.9414 55.1599 76.1609 55.8246 75.4C55.6434 75.1321 55.459 74.8661 55.2784 74.5982C55.7624 74.0424 56.1933 73.4757 56.6181 72.9175C56.9404 72.9935 57.2663 73.0678 57.5959 73.1354C58.1159 72.4225 58.6262 71.734 59.12 71.0693C57.9646 70.9907 56.8238 70.9018 55.6971 70.7533C54.5758 70.6054 53.4619 70.4021 52.3462 70.1738C51.8725 70.6857 51.3684 71.1959 50.8423 71.7212H50.841ZM53.2373 71.9915C53.606 72.1114 53.9777 72.2229 54.3463 72.3336C54.7113 72.4432 55.0837 72.5473 55.4554 72.6429C55.1819 72.9893 54.9024 73.3381 54.6064 73.6869C54.386 73.3971 54.1645 73.1092 53.9313 72.8261C53.7006 72.5449 53.4674 72.2661 53.2367 71.9915H53.2373Z" fill="#210D15"/>
<path fill-rule="evenodd" clip-rule="evenodd" d="M19.2156 86.8063C19.2681 86.8452 19.2412 86.8032 19.2858 86.8763C19.3236 86.939 19.312 86.9353 19.3322 87.0126L19.6941 86.9913C19.7277 86.9755 19.6697 86.9938 19.7722 86.9609C19.7838 86.9573 19.8375 86.9426 19.8485 86.9402C19.9407 86.9195 19.9785 86.9152 20.0774 86.9086C20.0518 86.855 20.4857 86.9086 20.5559 86.9104C20.7043 86.8319 20.537 86.8318 20.7348 86.802C21.1217 86.743 20.9984 86.9512 21.159 87.0315C21.2762 87.0906 21.4141 87.0419 21.527 87.0906C21.7553 87.1892 21.571 87.5057 21.524 87.7127L21.419 87.9471C21.6814 87.9629 22.0696 87.9477 22.2833 87.9142L23.2611 87.8813L23.966 87.86L25.4803 87.8199C25.4144 87.8984 25.4413 87.8807 25.2673 87.9276C25.1837 87.9501 25.1019 87.9879 25.0323 88.0116C24.8742 88.0658 24.7369 88.1029 24.5794 88.1663C24.0856 88.3641 22.0397 88.9808 21.8114 89.1177C21.7724 89.3259 21.856 89.3746 21.8188 89.5457C21.7864 89.6948 21.1657 90.1806 21.4843 90.6926C21.6839 91.0128 21.4916 91.7731 21.7101 92.0836L21.795 92.2309L22.5604 92.1439L21.87 92.4166C21.8127 92.8963 21.6949 92.6169 21.9561 92.9681C22.257 93.0388 22.1001 92.9785 22.3083 92.8902C22.5176 92.8507 22.7001 93.127 23.3325 92.5377C23.4735 92.4063 23.5778 92.29 23.7115 92.1731C24.0008 91.9192 23.8348 91.9649 23.9538 91.6325C24.0881 91.515 24.2352 91.5662 24.2981 91.3829C24.3371 91.2685 24.3542 90.9203 24.3597 90.7979C24.6106 90.6883 25.0744 90.3255 25.2331 90.1338C25.3821 89.9542 25.2417 89.9469 25.2191 89.7764C25.2032 89.6571 25.2276 89.4964 25.2105 89.3454C24.9481 89.2888 24.4256 89.4221 24.1204 89.3905L25.1416 89.0392C25.1648 88.4073 25.1129 88.7068 25.4059 88.4055C25.5072 88.3014 25.5182 88.2868 25.6103 88.1644C25.7403 87.9915 25.9204 87.8588 26.1365 87.8101L26.3287 87.6555C26.3989 87.5989 26.3312 87.6433 26.4117 87.594C26.4337 87.4175 26.781 86.981 26.8713 86.7509L22.9815 86.8489C23.2916 86.6778 25.6183 86.2566 25.9973 86.0551C25.9674 85.881 25.6891 85.8128 25.6714 85.523C25.5737 85.467 25.4864 85.2162 25.4449 85.0677C25.3637 84.7779 25.5096 84.7511 25.3351 84.5076C25.0494 84.5052 20.7512 85.3623 19.9303 85.3976C20.1177 85.2722 23.1896 84.2702 23.7145 84.0748C23.8372 84.0291 24.8339 83.687 24.9469 83.6012L24.8327 83.2572C24.6313 83.2377 24.4622 83.2456 24.2578 83.211C23.9312 83.1556 24.0301 83.2012 23.8336 83.0101C23.2604 82.8384 23.3496 83.1829 23.3355 83.3297C23.1964 83.281 23.1384 83.2651 22.9937 83.2195C22.8204 83.1647 22.9437 83.1111 22.8631 82.9674C22.6238 82.937 22.6562 82.9833 22.4554 82.8767C22.3278 82.8092 22.2118 82.8585 22.0501 82.8877C21.8035 82.9334 21.4397 83.0228 21.1986 83.0289L22.4035 82.5322L22.3907 82.2351C22.1551 82.2394 21.972 82.2935 21.7486 82.2729C20.9429 82.1986 21.1187 82.363 20.805 82.3983C20.4387 82.4384 20.44 82.2777 20.2227 82.5352C20.0383 82.7538 20.0817 82.6844 19.9999 82.7191C19.7692 82.8177 19.8363 82.9437 19.7075 83.189C19.5745 83.4441 19.4591 83.3242 19.2839 83.5342C19.2296 83.5993 19.1747 83.6937 19.1112 83.7381C18.9965 83.8185 18.9379 83.7601 18.8707 83.8897C18.8701 83.8903 18.6937 84.5161 18.6895 84.5411L19.6953 84.3706L18.6528 84.7663C18.6266 84.9051 18.6162 85.0573 18.5845 85.1912C18.4978 85.5577 18.2048 85.3769 18.6791 86.0167C18.8213 86.2085 18.7676 86.5098 18.9019 86.5707C19.027 86.6279 20.0316 86.4118 20.277 86.41L19.1796 86.7138C19.2467 86.8002 19.207 86.7338 19.218 86.8038L19.2156 86.8063Z" fill="#B70569"/>
<path d="M17.5645 81.7243C18.0211 81.7779 18.0748 82.1614 17.5096 83.0076C16.4183 84.6409 15.3257 86.2748 14.2356 87.9063C13.7266 88.6672 13.256 89.5292 13.1003 90.2677C12.9423 91.0158 13.1022 91.6483 13.8322 91.9357C14.0171 92.0081 14.2014 92.0799 14.3858 92.1524C14.5701 92.2248 14.755 92.2979 14.9406 92.3691C15.4454 91.5199 15.9513 90.6676 16.4573 89.816C16.3078 89.7691 16.1576 89.7198 16.0081 89.6705C15.6144 89.5408 15.637 88.8986 16.118 88.1254C17.1483 86.4702 18.1792 84.8168 19.2088 83.1622C19.8814 82.0805 19.9956 81.4139 19.8528 81.0383C20.4296 80.7254 21.0973 80.1282 21.7821 79.0282C22.8112 77.376 23.8415 75.7214 24.8711 74.0668C25.3539 73.2912 25.9673 72.7007 26.3116 72.638C26.444 72.6137 26.5747 72.5911 26.7071 72.5668C27.2131 71.7151 27.7191 70.8629 28.2257 70.0112C28.0688 70.0514 27.9126 70.0952 27.7557 70.1366C27.6001 70.1774 27.4444 70.22 27.2869 70.262C26.6693 70.4276 25.9881 70.995 25.3307 71.6951C24.6758 72.3921 24.0386 73.2352 23.5308 73.9956C22.4395 75.6295 21.3475 77.264 20.2568 78.8961C19.6941 79.7386 19.1777 80.0697 18.7273 80.0411C18.3391 80.6024 17.9527 81.1655 17.5645 81.7243Z" fill="#210D15"/>
<path d="M53.418 64.0746C53.0488 64.3668 53.1489 64.676 53.9533 64.9798C55.5055 65.566 57.0582 66.1529 58.6092 66.7379C59.3324 67.0112 60.0618 67.3789 60.4756 67.8306C60.895 68.2884 60.9993 68.8381 60.486 69.4517C60.356 69.607 60.226 69.7616 60.0966 69.9162C59.9666 70.0715 59.8372 70.2261 59.706 70.3813C58.9528 70.041 58.1965 69.7007 57.4409 69.3598C57.5508 69.2429 57.66 69.1236 57.7687 69.0049C58.0549 68.6926 57.7919 68.2367 57.0875 67.9396C55.5793 67.3034 54.0711 66.6691 52.5635 66.0323C51.5784 65.616 51.2275 65.1935 51.2061 64.8404C50.5951 64.9317 49.7986 64.866 48.7964 64.4435C47.29 63.8086 45.7824 63.173 44.2748 62.5369C43.568 62.2386 42.8204 62.1479 42.503 62.2928C42.3809 62.3481 42.2607 62.4042 42.1386 62.4596C41.383 62.1186 40.6273 61.7783 39.8711 61.4374C40.0206 61.3796 40.1696 61.3254 40.3197 61.2688C40.468 61.2128 40.617 61.1568 40.7671 61.1008C41.3567 60.8798 42.1538 60.9163 42.9803 61.0624C43.8043 61.2079 44.6679 61.4703 45.3906 61.743C46.9433 62.3299 48.4961 62.9167 50.047 63.503C50.8472 63.8055 51.4136 63.7617 51.7865 63.4908C52.331 63.685 52.8748 63.8816 53.418 64.0746Z" fill="#210D15"/>
</g>
<defs>
<clipPath id="clip0">
<rect width="61" height="93" fill="white"/>
</clipPath>
</defs>
</svg>
