<svg width="32" height="27" viewBox="0 0 32 27" fill="none" xmlns="http://www.w3.org/2000/svg">
<path d="M32 3.09953C30.823 3.62499 29.5568 3.98039 28.229 4.13911C29.5847 3.32134 30.6252 2.02741 31.1163 0.483068C29.8477 1.2407 28.442 1.79031 26.9472 2.08656C25.7496 0.802486 24.0433 0 22.1539 0C18.5288 0 15.5887 2.96003 15.5887 6.60966C15.5887 7.12772 15.647 7.63199 15.7596 8.11604C10.3034 7.8405 5.46553 5.20925 2.22724 1.20915C1.66223 2.18515 1.33811 3.32134 1.33811 4.53246C1.33811 6.82507 2.49799 8.84903 4.25864 10.034C3.18296 10 2.16996 9.70278 1.28523 9.2064C1.28474 9.2345 1.28474 9.26259 1.28474 9.2902C1.28474 12.4927 3.5487 15.1639 6.55149 15.7707C6.00116 15.9225 5.41999 16.0029 4.82218 16.0029C4.39818 16.0029 3.98739 15.962 3.58689 15.8851C4.42217 18.5104 6.84623 20.4215 9.71976 20.4752C7.47244 22.2483 4.642 23.3046 1.56529 23.3046C1.03651 23.3046 0.512623 23.2735 0 23.2119C2.90388 25.088 6.35564 26.1818 10.063 26.1818C22.1387 26.1818 28.7426 16.1103 28.7426 7.37517C28.7426 7.08878 28.7362 6.80338 28.7235 6.52044C30.0073 5.58881 31.1202 4.42501 32 3.09953Z" fill="white"/>
</svg>
