<svg width="150" height="150" viewBox="0 0 150 150" fill="none" xmlns="http://www.w3.org/2000/svg">
<path d="M131.718 35.678C131.822 35.6898 131.925 35.6953 132.029 35.6953C132.77 35.6953 133.486 35.4018 134.016 34.8718L149.176 19.7121C149.948 18.9407 150.203 17.7929 149.832 16.7669C149.46 15.7409 148.529 15.0226 147.443 14.9238L136.107 13.8935L135.076 2.55821C134.978 1.47188 134.259 0.540535 133.234 0.169343C132.208 -0.202141 131.06 0.0533278 130.288 0.824714L115.128 15.9847C114.524 16.5885 114.227 17.4346 114.322 18.2836L115.664 30.3607L112.825 33.1995C102.34 23.6086 88.5882 17.5362 73.4552 16.8636V11.5248C73.4552 9.97208 72.1963 8.71319 70.6436 8.71319C69.0908 8.71319 67.8319 9.97208 67.8319 11.5248V16.8627C35.5688 18.2971 9.58418 44.2816 8.14951 76.5451H2.81162C1.25889 76.5451 0 77.804 0 79.3568C0 80.9095 1.25889 82.1684 2.81162 82.1684H8.14951C9.58418 114.432 35.5688 140.416 67.8319 141.851V147.189C67.8319 148.741 69.0908 150 70.6436 150C72.1963 150 73.4552 148.741 73.4552 147.189V141.851C105.718 140.416 131.703 114.432 133.138 82.1684H138.475C140.028 82.1684 141.287 80.9095 141.287 79.3568C141.287 77.804 140.028 76.5451 138.475 76.5451H133.138C132.465 61.4121 126.393 47.6602 116.802 37.1748L119.641 34.3359L131.718 35.678ZM130.02 9.04571L130.719 16.7361C130.842 18.0879 131.913 19.1587 133.265 19.2817L140.955 19.9808L130.995 29.9402L121.154 28.8469L120.061 19.0055L130.02 9.04571ZM127.511 76.5451H123.549C121.997 76.5451 120.738 77.804 120.738 79.3568C120.738 80.9095 121.997 82.1684 123.549 82.1684H127.511C126.085 111.331 102.618 134.798 73.4555 136.223V132.263C73.4555 130.71 72.1966 129.451 70.6438 129.451C69.0911 129.451 67.8322 130.71 67.8322 132.263V136.223C38.6695 134.799 15.2021 111.331 13.7769 82.1687H17.7381C19.2908 82.1687 20.5497 80.9098 20.5497 79.357C20.5497 77.8043 19.2908 76.5454 17.7381 76.5454H13.7769C15.2021 47.3833 38.6695 23.9153 67.8319 22.4903V26.4513C67.8319 28.004 69.0908 29.2629 70.6436 29.2629C72.1963 29.2629 73.4552 28.004 73.4552 26.4513V22.4903C87.039 23.1542 99.3867 28.6002 108.847 37.1769L100.387 45.6372C92.4524 38.6297 82.0368 34.3699 70.6433 34.3699C45.8373 34.3699 25.6562 54.5508 25.6562 79.357C25.6562 104.163 45.8373 124.344 70.6433 124.344C95.4492 124.344 115.63 104.163 115.63 79.357C115.63 67.9638 111.371 57.5481 104.364 49.6131L112.824 41.1527C121.401 50.6136 126.847 62.9616 127.511 76.5451ZM68.6555 81.3451C69.2048 81.8941 69.924 82.1687 70.6436 82.1687C71.3631 82.1687 72.0829 81.8941 72.6316 81.3451L87.9012 66.0756C90.7395 69.7553 92.434 74.361 92.434 79.357C92.434 91.3726 82.6588 101.148 70.6433 101.148C58.6277 101.148 48.8525 91.3726 48.8525 79.357C48.8525 67.3415 58.6277 57.5663 70.6433 57.5663C75.6393 57.5663 80.2447 59.2608 83.9247 62.0991L68.6552 77.3687C67.5577 78.467 67.5577 80.2471 68.6555 81.3451ZM70.6438 51.9434C55.5275 51.9434 43.2299 64.2413 43.2299 79.3573C43.2299 94.4733 55.5275 106.771 70.6438 106.771C85.7602 106.771 98.0578 94.4733 98.0578 79.3573C98.0578 72.8101 95.7478 66.7937 91.9037 62.0739L100.383 53.5948C106.376 60.5039 110.008 69.5142 110.008 79.357C110.008 101.062 92.3493 118.721 70.6441 118.721C48.939 118.721 31.2806 101.062 31.2806 79.357C31.2806 57.6519 48.939 39.9932 70.6441 39.9932C80.4867 39.9932 89.4976 43.6248 96.4066 49.6181L87.9275 58.0975C83.2075 54.2534 77.1914 51.9434 70.6438 51.9434Z" fill="#E1215B"/>
</svg>
