<svg width="150" height="150" viewBox="0 0 150 150" fill="none" xmlns="http://www.w3.org/2000/svg">
<path d="M133.082 75.7644L116.763 50.5635C115.498 48.6102 113.354 47.4439 111.027 47.4439H39.0246C36.7011 47.4439 34.5586 48.6073 33.2933 50.5556L16.9233 75.7597C15.2505 78.3349 15.5089 81.7351 17.5518 84.0278L69.8941 142.791C71.1897 144.246 73.0494 145.08 74.9971 145.08C74.9974 145.08 74.9971 145.08 74.9974 145.08C76.9447 145.08 78.8051 144.246 80.1006 142.792L132.449 84.0246C134.489 81.7345 134.749 78.3378 133.082 75.7644ZM107.721 53.303L93.9964 74.5257L80.2638 53.303H107.721ZM88.6119 76.9901H61.3822L74.9971 55.9494L88.6119 76.9901ZM69.7304 53.3036L56.0355 74.468L42.3454 53.3036H69.7304ZM36.9281 55.7162L50.6889 76.9901H23.1108L36.9281 55.7162ZM24.3483 82.8495H53.8342L69.4248 133.455L24.3483 82.8495ZM74.9971 131.641L59.9651 82.8495H90.029L74.9971 131.641ZM80.569 133.457L96.1602 82.8498H125.649L80.569 133.457ZM99.3809 76.9901L113.129 55.7309L126.895 76.9901H99.3809Z" fill="#E1215B"/>
<path d="M8.88662 76.9901H2.92969C1.31191 76.9901 0 78.3018 0 79.9198C0 81.5379 1.31191 82.8495 2.92969 82.8495H8.88662C10.5044 82.8495 11.8163 81.5379 11.8163 79.9198C11.8163 78.3018 10.5044 76.9901 8.88662 76.9901Z" fill="#E1215B"/>
<path d="M147.07 76.9901H141.113C139.496 76.9901 138.184 78.3018 138.184 79.9198C138.184 81.5379 139.496 82.8495 141.113 82.8495H147.07C148.688 82.8495 150 81.5379 150 79.9198C150 78.3018 148.688 76.9901 147.07 76.9901Z" fill="#E1215B"/>
<path d="M128.07 26.9022C126.926 25.7581 125.071 25.7581 123.927 26.9022L114.195 36.6337C113.051 37.7777 113.051 39.6328 114.195 40.7769C114.768 41.349 115.517 41.635 116.267 41.635C117.017 41.635 117.766 41.3487 118.339 40.7769L128.07 31.0453C129.214 29.9013 129.214 28.0465 128.07 26.9022Z" fill="#E1215B"/>
<path d="M35.9315 36.5815L26.2002 26.8497C25.0565 25.7057 23.202 25.7057 22.0568 26.8497C20.9127 27.9937 20.9127 29.8488 22.0568 30.9929L31.7883 40.7244C32.3605 41.2966 33.1102 41.5825 33.8599 41.5825C34.6096 41.5825 35.3593 41.2963 35.9315 40.7244C37.0755 39.5807 37.0755 37.7253 35.9315 36.5815Z" fill="#E1215B"/>
<path d="M75.0744 4.91983C73.4566 4.91983 72.1447 6.23145 72.1447 7.84952V26.9417C72.1447 28.5598 73.4563 29.8714 75.0744 29.8714C76.6922 29.8714 78.0041 28.5598 78.0041 26.9417V7.84952C78.0041 6.23174 76.6922 4.91983 75.0744 4.91983Z" fill="#E1215B"/>
<path d="M77.1442 34.7812C76.5996 34.2363 75.8438 33.9229 75.0732 33.9229C74.3027 33.9229 73.5469 34.2363 73.002 34.7812C72.457 35.3262 72.1436 36.082 72.1436 36.8525C72.1436 37.626 72.4567 38.3789 73.002 38.9238C73.5469 39.4717 74.3027 39.7822 75.0732 39.7822C75.8438 39.7822 76.5996 39.4717 77.1442 38.9238C77.6921 38.3789 78.0029 37.623 78.0029 36.8525C78.0029 36.082 77.6921 35.3265 77.1442 34.7812Z" fill="#E1215B"/>
</svg>
